<svg width="989" height="1024" viewBox="0 0 989 1024" fill="none" xmlns="http://www.w3.org/2000/svg">
<rect width="989" height="1024" fill="#FF5900"/>
<path d="M307.66 544.716L291.896 500.365H300.128V488.106H258.97V500.365H267.202L251.415 544.716H245V556.981H271.706V544.716H264.532L267.743 535.091H291.332L294.542 544.716H287.369V556.981H314.074V544.716H307.66ZM271.517 523.972L279.537 500.454L287.557 523.972H271.517Z" fill="white"/>
<path d="M670.065 544.716L654.308 500.365H662.538V488.106H621.38V500.365H629.613L613.855 544.716H607.41V556.981H634.11V544.716H626.943L630.148 535.091H653.743L656.948 544.716H649.78V556.981H676.48V544.716H670.065ZM633.923 523.972L641.948 500.454L649.968 523.972H633.923Z" fill="white"/>
<path d="M320.507 544.622H327.315V500.365H320.507V488.106H341.427L371.413 535.097V500.365H364.357V488.106H390.874V500.365H384.107V556.981H371.083L340.133 508.385V544.622H347.189V556.969H320.507V544.622Z" fill="white"/>
<path d="M466.04 544.622H472.831V500.365H466.04V488.106H493.122V500.365H486.066V516.129H512.865V500.365H505.81V488.106H532.798V500.365H525.96V544.622H532.75V556.969H505.763V544.622H512.818V528.206H486.066V544.622H493.122V556.969H466.04V544.622Z" fill="white"/>
<path d="M545.785 530.275V500.365H539.183V488.106H566.36V500.365H559.303V530.469C559.303 539.054 564.873 544.998 573.273 544.998C581.675 544.998 587.333 539.242 587.333 530.469V500.365H580.323V488.106H607.41V500.365H600.803V530.275C600.803 548.114 590.143 557.91 573.25 557.91C556.263 557.927 545.785 547.738 545.785 530.275Z" fill="white"/>
<path d="M678.103 522.544C678.103 502.441 693.195 487.154 711.615 487.154C721.43 487.154 727.938 490.835 730.678 497.738V488.107H743.225V513.289H731.055C728.978 504.805 723.128 500.084 712.828 500.084C700.48 500.084 691.785 509.991 691.785 522.544C691.785 534.715 700.745 544.622 713.298 544.622C722.705 544.622 729.43 539.43 732.83 531.981L745 538.49C739.15 550.002 727.825 557.928 713.393 557.928C692.63 557.928 678.103 542.076 678.103 522.544Z" fill="white"/>
<path d="M453.193 544.716L437.435 500.365H445.667V488.106H404.509V500.365H412.741L396.983 544.716H390.533V556.981H417.239V544.716H410.066L413.276 535.091H436.865L440.075 544.716H432.902V556.981H459.608V544.716H453.193ZM417.051 523.972L425.07 500.454L433.09 523.972H417.051Z" fill="white"/>
<path d="M417.003 481.651L427.992 464H445.031L429.409 481.651H417.003Z" fill="white"/>
</svg>
