<svg xmlns="http://www.w3.org/2000/svg" viewBox="0 0 75.62 14.92"><defs><style>.cls-1{fill:#fff;}</style></defs><title>Recurso 1</title><g id="Capa_2" data-name="Capa 2"><g id="Layer_1" data-name="Layer 1"><path class="cls-1" d="M47.28,14.55a1.15,1.15,0,0,1-1.6,0c-.3-.3-.29-.67-.29-1.18s0-.88.29-1.18a1.15,1.15,0,0,1,1.6,0c.3.3.29.67.29,1.18S47.58,14.25,47.28,14.55Zm-.43-2a.48.48,0,0,0-.37-.16.49.49,0,0,0-.37.16c-.11.12-.14.26-.14.83s0,.71.14.83a.49.49,0,0,0,.37.16.48.48,0,0,0,.37-.16c.11-.12.15-.26.15-.83S47,12.66,46.85,12.54Z"/><path class="cls-1" d="M49.94,14.85l-.58-1.18h-.42v1.18h-.58v-3h1.16a.89.89,0,0,1,1,.91.8.8,0,0,1-.54.78l.66,1.28Zm-.45-2.44h-.54v.78h.54a.39.39,0,1,0,0-.78Z"/><path class="cls-1" d="M52.42,12.4v2.44h-.58V12.4h-.77v-.52H53.2v.52Z"/><path class="cls-1" d="M53.87,14.85v-3h1.95v.52H54.45v.69h1.17v.52H54.45v.72h1.37v.52Z"/><path class="cls-1" d="M58.42,14.53a1.11,1.11,0,0,1-.83.34,1.08,1.08,0,0,1-.8-.32.85.85,0,0,1-.24-.44,4,4,0,0,1,0-.74,4,4,0,0,1,0-.74.84.84,0,0,1,.24-.44,1.08,1.08,0,0,1,.8-.32,1.06,1.06,0,0,1,1.11.95h-.58a.5.5,0,0,0-.53-.43.47.47,0,0,0-.37.16c-.11.14-.14.24-.14.83s0,.7.14.84a.46.46,0,0,0,.37.15.53.53,0,0,0,.41-.17.58.58,0,0,0,.13-.39v-.11h-.54V13.2H58.7v.43A1.18,1.18,0,0,1,58.42,14.53Z"/><path class="cls-1" d="M61.23,14.55a1.15,1.15,0,0,1-1.6,0c-.3-.3-.29-.67-.29-1.18s0-.88.29-1.18a1.15,1.15,0,0,1,1.6,0c.3.3.29.67.29,1.18S61.53,14.25,61.23,14.55Zm-.43-2a.48.48,0,0,0-.37-.16.49.49,0,0,0-.37.16c-.11.12-.14.26-.14.83s0,.71.14.83a.49.49,0,0,0,.37.16.48.48,0,0,0,.37-.16c.11-.12.15-.26.15-.83S60.92,12.66,60.81,12.54Zm-.24-.93h-.36l.27-.71H61Z"/><path class="cls-1" d="M64.07,14.85,62.9,13v1.82h-.58v-3h.51L64,13.7V11.89h.58v3Z"/><path class="cls-1" d="M45.42,8.87l-.17-.52H44.2L44,8.87h-.6l1.08-3h.45l1.08,3Zm-.69-2.09-.37,1.08h.74Z"/><path class="cls-1" d="M48.17,8.87l-.58-1.18h-.42V8.87H46.6v-3h1.16a.89.89,0,0,1,1,.91.8.8,0,0,1-.54.78l.66,1.28Zm-.45-2.44h-.54v.78h.54a.39.39,0,1,0,0-.78Z"/><path class="cls-1" d="M51.37,9l-.26-.26a1.17,1.17,0,0,1-1.4-.16c-.3-.3-.29-.67-.29-1.18s0-.88.29-1.18a1.15,1.15,0,0,1,1.6,0c.3.3.29.67.29,1.18a1.79,1.79,0,0,1-.18,1l.25.25Zm-.49-2.43a.48.48,0,0,0-.37-.16.49.49,0,0,0-.37.16c-.11.12-.14.26-.14.83s0,.71.14.83a.49.49,0,0,0,.37.16.33.33,0,0,0,.19-.05l-.26-.25.31-.3L51,8a1.91,1.91,0,0,0,.05-.6C51,6.82,51,6.69,50.88,6.56Z"/><path class="cls-1" d="M53.44,8.9a1,1,0,0,1-1.09-1V5.91h.58V7.84a.51.51,0,1,0,1,0V5.91h.57V7.86A1,1,0,0,1,53.44,8.9Z"/><path class="cls-1" d="M55.38,8.87v-3H56v3Z"/><path class="cls-1" d="M58,6.43V8.87h-.58V6.43h-.77V5.91h2.12v.52Z"/><path class="cls-1" d="M59.43,8.87v-3h1.95v.52H60v.69h1.17v.52H60v.72h1.37v.52Z"/><path class="cls-1" d="M63.14,8.9a1.08,1.08,0,0,1-.8-.32.85.85,0,0,1-.24-.44,4,4,0,0,1,0-.74,4,4,0,0,1,0-.74.84.84,0,0,1,.24-.44,1.08,1.08,0,0,1,.8-.32,1,1,0,0,1,1.09.93h-.59a.49.49,0,0,0-.5-.42.46.46,0,0,0-.37.15c-.12.13-.15.26-.15.83s0,.71.15.84a.46.46,0,0,0,.37.15.49.49,0,0,0,.5-.42h.59A1,1,0,0,1,63.14,8.9Z"/><path class="cls-1" d="M66,6.43V8.87h-.58V6.43h-.77V5.91h2.12v.52Z"/><path class="cls-1" d="M68.47,8.9a1,1,0,0,1-1.09-1V5.91H68V7.84a.51.51,0,1,0,1,0V5.91h.57V7.86A1,1,0,0,1,68.47,8.9Z"/><path class="cls-1" d="M72,8.87l-.58-1.18H71V8.87h-.58v-3h1.16a.89.89,0,0,1,1,.91A.8.8,0,0,1,72,7.6l.66,1.28Zm-.45-2.44H71v.78h.54a.39.39,0,1,0,0-.78Z"/><path class="cls-1" d="M75,8.87l-.17-.52H73.79l-.18.52H73l1.08-3h.45l1.08,3Zm-.69-2.09L74,7.86h.74Z"/><path class="cls-1" d="M42.11.61V3.05h-.58V.61h-.77V.09h2.12V.61Z"/><path class="cls-1" d="M44.95,3.05l-.17-.52H43.72l-.18.52h-.6L44,.09h.45l1.08,3ZM44.26,1,43.88,2h.74Z"/><path class="cls-1" d="M46.08,3.05v-3h.58V2.54H48v.52Z"/><path class="cls-1" d="M48.63,3.05v-3h.58V2.54h1.34v.52Z"/><path class="cls-1" d="M51.19,3.05v-3h1.95V.61H51.76V1.3h1.17v.52H51.76v.72h1.37v.52Z"/><path class="cls-1" d="M55.43,3.05l-.58-1.18h-.42V3.05h-.58v-3H55A.89.89,0,0,1,56,1a.8.8,0,0,1-.54.78l.66,1.28ZM55,.61h-.54v.78H55A.39.39,0,0,0,55.41,1,.39.39,0,0,0,55,.61Z"/><path class="cls-1" d="M59.72,2.77a1.08,1.08,0,0,1-.78.28H57.88v-3h1.07a1.08,1.08,0,0,1,.78.28A1.49,1.49,0,0,1,60,1.56,1.54,1.54,0,0,1,59.72,2.77Zm-.4-2a.52.52,0,0,0-.43-.18h-.44V2.54h.44a.52.52,0,0,0,.43-.18c.11-.13.12-.34.12-.79S59.43.92,59.32.79Z"/><path class="cls-1" d="M60.78,3.05v-3h1.95V.61H61.36V1.3h1.17v.52H61.36v.72h1.37v.52Z"/><path class="cls-1" d="M0,.07H10.64V2.55H6.71V14.88H3.94V2.55H0Z"/><path class="cls-1" d="M14.08.08h2.6l4.9,14.79H18.65l-.93-3h-4.9l.72-2.37H17L14.12.19Z"/><path class="cls-1" d="M33.33,9.18c0,3.37-2,5.74-5.33,5.74s-5.33-2.36-5.33-5.74V5.77C22.68,2.4,24.68,0,28,0s5.33,2.36,5.33,5.74ZM30.64,6.1c0-2.39-1-3.66-2.63-3.66S25.37,3.71,25.37,6.1V8.86c0,2.38,1,3.66,2.63,3.66s2.63-1.27,2.63-3.66Z"/><polygon class="cls-1" points="36.69 0 35.39 0 40.35 14.89 41.64 14.89 36.69 0"/></g></g></svg>