<svg width="50" height="32" viewBox="0 0 50 32" fill="none" xmlns="http://www.w3.org/2000/svg">
<path d="M2.79173 2.07355C2.71279 1.8896 2.86709 1.75976 2.84197 1.62992C2.84197 1.55418 2.94603 1.47483 2.89221 1.42433C2.92083 1.13619 2.96395 0.849691 3.02139 0.565929C3.05958 0.413742 3.14611 0.278227 3.26785 0.179941C3.3896 0.081655 3.53991 0.0259621 3.696 0.021311C3.92565 0.0465582 4.15889 -0.0832846 4.41366 0.0970526C4.43878 0.125907 4.43878 0.125907 4.46749 0.0970526C4.77609 -0.0327902 5.13851 0.201648 5.44711 0.0970526C5.60141 0.0465582 5.75929 0.125907 5.91359 0.0465582C6.06789 -0.0327902 6.27243 0.021311 6.48055 0.021311H7.07622C7.1476 0.11344 7.22555 0.20023 7.30946 0.280997C7.38482 0.486581 7.43864 0.746267 7.514 0.930211C7.67164 1.23688 7.7691 1.57117 7.80106 1.91485C7.90154 2.53882 7.8513 3.16279 8.10966 3.78675C8.14481 3.91344 8.15336 4.04609 8.13478 4.17628C8.12844 4.45832 8.17219 4.73923 8.26396 5.00583C8.27819 5.17226 8.30458 5.33742 8.3429 5.49996C8.4004 5.55838 8.44585 5.62765 8.47664 5.70378C8.50743 5.77991 8.52295 5.86141 8.52232 5.94359C8.57615 6.20327 8.62638 6.4341 8.6515 6.64329C8.73482 7.03579 8.7781 7.4358 8.78068 7.83713C8.77024 7.88174 8.76965 7.9281 8.77895 7.97297C8.78825 8.01783 8.80721 8.0601 8.83451 8.09681C9.01392 8.38175 8.98881 8.74603 9.11799 9.05981C9.21108 9.31704 9.23702 9.59395 9.19334 9.86412C9.19334 10.0445 9.32252 10.1995 9.2974 10.4087C9.25957 10.5857 9.28766 10.7705 9.37635 10.9281C9.38884 11.0227 9.38884 11.1185 9.37635 11.213C9.35604 11.4689 9.39156 11.7262 9.48041 11.9669C9.50339 12.2151 9.56389 12.4583 9.65983 12.6882C9.81412 12.9226 9.68494 13.1787 9.73877 13.3879C9.79259 13.5971 9.91819 13.9073 9.96842 14.1417C9.99713 14.1922 9.9433 14.2211 9.9433 14.2716C10.0223 14.3542 10.0837 14.4521 10.1238 14.5594C10.1639 14.6667 10.1819 14.7811 10.1765 14.8955V15.909C10.1812 15.9881 10.1981 16.066 10.2268 16.1399C10.207 16.1643 10.1902 16.1909 10.1765 16.2192V16.2985C10.3198 16.5355 10.4081 16.8017 10.4349 17.0776C10.4349 17.2832 10.539 17.4383 10.539 17.6222C10.5452 17.8081 10.5803 17.9919 10.643 18.1668C10.5139 18.2714 10.3847 18.376 10.2842 18.477C10.1299 18.4265 9.94689 18.5564 9.76748 18.4013C9.71365 18.3472 9.58447 18.376 9.484 18.4013C9.26546 18.4771 9.02793 18.4771 8.80939 18.4013C8.77991 18.3812 8.74432 18.3723 8.70891 18.376C8.39673 18.6357 8.11325 18.3472 7.85489 18.376C7.6733 18.3823 7.49661 18.3162 7.36328 18.1921C7.2392 18.0482 7.1727 17.8631 7.17669 17.6727C7.21321 17.3949 7.15906 17.1127 7.02239 16.8684C6.96857 16.8684 7.07263 16.8143 7.09775 16.7891C6.8645 16.6592 6.8645 16.349 6.60614 16.2697C6.37941 16.2083 6.14455 16.1828 5.91 16.194C5.82056 16.116 5.71331 16.0615 5.59782 16.0353C5.13492 16.1651 4.64332 16.0641 4.04765 16.1146C4.00818 16.1772 3.96505 16.2375 3.91847 16.2949C3.78659 16.4109 3.68303 16.5557 3.61583 16.7184C3.54862 16.881 3.51957 17.057 3.53093 17.2327C3.53231 17.4768 3.49846 17.7197 3.43046 17.954C3.35155 18.1154 3.24871 18.2638 3.12545 18.3941C2.45443 18.3941 1.83364 18.5744 1.18774 18.4951C1.03781 18.4823 0.890428 18.4483 0.749964 18.3941C0.671021 18.34 0.516722 18.4446 0.337304 18.4698C0.234026 18.3288 0.121331 18.1951 0 18.0695C0.0502368 17.5753 0.12918 16.9874 0.258361 16.3563C0.258361 16.3815 0.233242 16.331 0.208124 16.2769C0.358835 15.6024 0.54184 14.9027 0.717669 14.1994C0.588489 13.9397 0.559782 13.6548 0.897086 13.0056V12.5403C0.885831 12.3436 0.921509 12.1469 1.00115 11.9669C1.13033 11.7324 1.0765 11.4222 1.15545 11.1625C1.19751 10.6943 1.29139 10.2321 1.43534 9.78477V9.62968C1.42536 9.29727 1.48147 8.96619 1.6004 8.65586C1.64219 8.47553 1.64219 8.28796 1.6004 8.10763C1.59692 8.02967 1.6091 7.9518 1.63623 7.87867C1.66335 7.80555 1.70487 7.73867 1.75829 7.68204C1.86432 7.44272 1.9333 7.18851 1.96282 6.92823C2.04177 6.4882 2.06689 6.04457 2.14583 5.6298C2.1748 5.27167 2.26208 4.92076 2.40419 4.59106C2.37548 4.09693 2.68767 3.65691 2.58361 3.14836C2.66125 2.84353 2.68793 2.52784 2.66255 2.21421L2.79173 2.07355ZM1.67935 7.93451C1.70003 8.00218 1.70854 8.07302 1.70446 8.1437H1.79417V7.93451H1.67935ZM5.2964 6.89577C5.21267 6.99447 5.13478 7.09804 5.06316 7.20595C5.04635 7.46105 5.00305 7.7137 4.93397 7.95976C4.80345 8.31933 4.7249 8.69586 4.70073 9.07785C4.70073 9.15359 4.54643 9.28343 4.62538 9.36278C4.70432 9.44213 4.57514 9.59722 4.60026 9.70181C4.62538 9.80641 4.54643 9.9615 4.54643 10.0625C4.53387 10.2017 4.53387 10.3417 4.54643 10.4809C4.52509 10.6046 4.49019 10.7255 4.44237 10.8415C4.43582 10.953 4.40125 11.061 4.3419 11.1553C4.36694 11.3094 4.36694 11.4665 4.3419 11.6206C4.3419 11.8045 4.23784 11.9596 4.23784 12.1147C4.23784 12.5043 4.1876 12.8361 4.54643 13.1968C4.68233 13.2325 4.82221 13.2507 4.96268 13.2509C5.09186 13.2761 5.24616 13.2256 5.35022 13.2761C5.42382 13.3187 5.5064 13.3432 5.59122 13.3476C5.67603 13.352 5.76068 13.3361 5.83824 13.3013C6.02124 13.2509 6.19707 13.2256 6.2796 12.9912C6.20066 12.8072 6.32984 12.6016 6.38367 12.3672C6.4339 11.9524 6.22578 11.5629 6.17554 11.1734C6.10149 10.8394 6.04994 10.5008 6.02124 10.1599C6.04636 9.77034 5.89206 9.38081 5.9423 9.01653C5.9423 8.99128 5.89206 8.94079 5.89206 8.88669C5.86694 8.70635 5.70906 8.55126 5.70906 8.36732C5.68263 7.9567 5.62262 7.54896 5.52964 7.14824C5.46701 7.05321 5.38802 6.97016 5.2964 6.90298V6.89577Z" fill="#21201E"/>
<path d="M14.1596 9.65526C14.1848 9.18999 14.2099 8.69587 14.2601 8.15125C14.2779 8.05291 14.3043 7.95635 14.3391 7.86271C14.3721 7.47902 14.432 7.09816 14.5185 6.72298C14.5723 6.51379 14.5185 6.2541 14.6764 6.04491C14.4934 5.86458 14.7266 5.68424 14.7015 5.47505C14.7019 5.30748 14.7273 5.14092 14.7768 4.98092C14.7768 4.82583 14.906 4.72124 14.8809 4.56615C14.8558 4.41106 14.8055 4.25236 14.9598 4.12612C14.7517 4.02153 14.9598 3.91693 14.9598 3.81234C15.0233 3.64601 15.0609 3.47082 15.0711 3.29297C15.0595 3.161 15.0766 3.02808 15.1213 2.90344C15.1179 2.88076 15.1089 2.8593 15.0951 2.84102C15.0813 2.82275 15.0632 2.80824 15.0424 2.79884L15.1715 2.669C15.2036 2.52442 15.2216 2.37705 15.2254 2.22898C15.213 2.05242 15.2387 1.87526 15.3007 1.70961C15.4048 1.57976 15.2756 1.37057 15.4048 1.21548C15.534 1.06039 15.4048 0.876448 15.4048 0.721358C15.5089 0.566267 15.5878 0.436425 15.6632 0.331829C16.0092 0.21408 16.3757 0.169865 16.7397 0.201986C16.9563 0.195235 17.173 0.213387 17.3856 0.256087C17.5399 0.331829 17.7444 0.227234 17.9274 0.201986H18.5733C18.5984 0.227234 18.6235 0.227233 18.6487 0.256087C18.7778 0.357076 18.9608 0.411178 19.0075 0.566268C19.1285 0.804069 19.2154 1.05784 19.2659 1.32008C19.3985 1.6655 19.469 2.03188 19.474 2.4021C19.6032 2.63654 19.474 2.97557 19.7072 3.15591C19.6785 3.2064 19.6785 3.23526 19.6534 3.23526C19.6733 3.43245 19.7255 3.62498 19.8077 3.80512C19.9369 4.01432 19.8364 4.274 19.9118 4.45434C19.9706 4.64679 19.9913 4.84898 19.9728 5.04945C20.0803 5.30416 20.1749 5.56418 20.2562 5.82851C20.3155 6.08427 20.3504 6.34514 20.3603 6.60756C20.3922 6.85 20.4612 7.08602 20.5648 7.30727C20.6187 7.41187 20.4357 7.48761 20.59 7.51646C20.5397 7.61745 20.773 7.72205 20.6187 7.82664C20.6187 7.82664 20.7478 7.95649 20.7478 8.03584C20.7478 8.52635 20.9775 8.86539 21.0564 9.30541C21.1068 9.81974 21.2102 10.3274 21.365 10.8202C21.392 10.9923 21.392 11.1675 21.365 11.3396C21.507 11.4914 21.6212 11.6673 21.7023 11.859C21.7319 11.8118 21.7668 11.7682 21.8064 11.7291C21.8448 11.7692 21.8797 11.8127 21.9105 11.859C21.9893 11.7042 22.0936 11.564 22.2191 11.4442C22.1918 11.2625 22.2006 11.0772 22.2449 10.8989C22.2893 10.7206 22.3683 10.5529 22.4774 10.4055C22.4469 10.3656 22.4216 10.322 22.4021 10.2756C22.4386 10.1859 22.4817 10.0991 22.5312 10.0159L22.4774 9.96544C22.5312 9.41722 22.7896 8.9772 22.7107 8.52275C22.7704 8.47609 22.8432 8.44958 22.9188 8.447C22.8901 8.42176 22.8901 8.3929 22.8398 8.34241C22.9624 7.9755 23.0655 7.60227 23.1484 7.22432C23.1808 7.17917 23.2155 7.13583 23.2525 7.09447L23.1771 7.01873C23.1771 6.96463 23.1484 6.91414 23.1771 6.91414C23.2966 6.76804 23.3602 6.58385 23.3566 6.39477C23.3732 6.07384 23.4436 5.75804 23.5647 5.46062C23.64 5.33078 23.4068 5.30553 23.5109 5.22618C23.6149 5.14683 23.6149 5.07109 23.6149 4.9665C23.6398 4.68568 23.719 4.41246 23.8482 4.16219C23.8482 4.13694 23.823 4.10809 23.7943 4.08284C23.8482 3.8484 23.8984 3.61397 23.9522 3.36149C24.0061 3.10902 24.1065 2.89622 24.1568 2.64015C24.1783 2.34701 24.2615 2.06181 24.4008 1.80338C24.4166 1.71149 24.4166 1.61755 24.4008 1.52566C24.3979 1.25632 24.4674 0.991179 24.6019 0.758212C24.7364 0.525245 24.931 0.333081 25.1651 0.201986C25.4486 0.256087 25.7321 0.126245 26.0191 0.306582C26.1196 0.0721435 26.378 0.256087 26.561 0.151492C26.665 0.0721435 26.8947 0.201986 27.1028 0.201986H27.7236C27.8779 0.306582 28.0573 0.436425 28.1614 0.515773C28.2655 0.866411 28.3092 1.23236 28.2905 1.5978C28.3566 1.64311 28.4179 1.69507 28.4735 1.75289C28.4536 1.76739 28.4355 1.78435 28.4197 1.80338C28.4762 1.94266 28.4948 2.09453 28.4735 2.2434C28.4738 2.58712 28.5259 2.92882 28.6278 3.2569C28.6488 3.48365 28.6835 3.70889 28.7319 3.93136C28.8554 4.40207 28.9158 4.88727 28.9113 5.37406C28.9449 5.62035 29.005 5.86223 29.0907 6.09541C29.0656 6.09541 29.0405 6.1459 28.9903 6.1459C29.0184 6.16829 29.0417 6.19609 29.059 6.22768C29.0762 6.25927 29.087 6.294 29.0907 6.32984V6.85282C29.0904 7.01955 29.1171 7.18522 29.1697 7.34334C29.3948 7.94013 29.4915 8.57814 29.4532 9.21524C29.4264 9.41149 29.4629 9.61121 29.5572 9.78511C29.6364 9.92902 29.6806 10.0897 29.6864 10.254C29.7574 10.6399 29.8005 11.0304 29.8156 11.4226C29.8156 11.5524 29.8658 11.6823 29.8658 11.8373C29.9197 12.1764 30.0488 12.4866 30.0739 12.8508C30.085 12.9414 30.1117 13.0292 30.1529 13.1105C30.0948 13.1343 30.0423 13.1699 29.9986 13.2151C29.9947 13.2941 30.0032 13.3732 30.0237 13.4496C30.0991 13.5505 29.9986 13.7092 30.1278 13.8391C30.171 13.9363 30.1884 14.0432 30.178 14.1493C30.1639 14.2838 30.1902 14.4194 30.2534 14.5388C30.3323 14.6939 30.2534 14.8237 30.3072 14.9283C30.4042 15.1299 30.4404 15.3556 30.4113 15.5775C30.4181 15.728 30.4484 15.8765 30.501 16.0176C30.5662 16.1924 30.592 16.3797 30.5763 16.5658C30.5555 16.9598 30.5991 17.3546 30.7055 17.7344C30.7055 17.94 30.7593 18.1491 30.7593 18.3836C30.6014 18.4846 30.4471 18.5892 30.2928 18.6685C30.1511 18.6026 29.9969 18.5685 29.8407 18.5685C29.6846 18.5685 29.5303 18.6026 29.3886 18.6685C29.3466 18.6163 29.2882 18.5801 29.223 18.5656C29.1578 18.5512 29.0896 18.5595 29.0297 18.5892C28.9297 18.6383 28.8207 18.6659 28.7094 18.6703C28.5982 18.6746 28.4873 18.6556 28.3838 18.6144C28.3049 18.6144 28.2295 18.6685 28.1757 18.6433C28.0866 18.6278 27.9998 18.6012 27.9174 18.5639C27.8297 18.5629 27.7433 18.5435 27.6636 18.5069C27.5839 18.4704 27.5127 18.4174 27.4545 18.3515C27.3964 18.2856 27.3526 18.2082 27.326 18.1243C27.2995 18.0404 27.2906 17.9518 27.3002 17.8642C27.3002 17.8354 27.2463 17.7849 27.2212 17.7055C27.1961 17.6262 27.3504 17.4999 27.2463 17.2907C27.1561 17.1063 27.12 16.8999 27.1423 16.6956C27.1483 16.5333 27.1138 16.3721 27.0418 16.2268C26.9853 16.1521 26.9548 16.0609 26.9548 15.9671C26.9548 15.8733 26.9853 15.7821 27.0418 15.7074C27.1423 15.4982 26.9377 15.2926 26.9126 15.0077C26.8276 14.7382 26.7841 14.4572 26.7834 14.1745C26.7834 14.124 26.8337 14.0699 26.8588 14.0194C26.7927 13.966 26.7326 13.9055 26.6794 13.8391C26.7095 13.4296 26.6669 13.0181 26.5538 12.6236C26.5538 12.6236 26.5789 12.5731 26.6291 12.4938C26.606 12.4188 26.5709 12.3482 26.5251 12.2846C26.5561 12.0243 26.4951 11.7613 26.3528 11.5416C26.4697 11.269 26.4758 10.9613 26.3698 10.6843C26.2639 10.4073 26.0543 10.1829 25.7859 10.0592C25.7321 10.1386 25.6818 10.2432 25.5526 10.4199C25.5024 10.6796 25.4235 11.0439 25.2943 11.4839C25.3194 11.4839 25.2692 11.4839 25.2153 11.5091C25.1902 11.639 25.14 11.7688 25.1149 11.9275C25.1016 12.039 25.1028 12.1518 25.1184 12.2629C25.1184 12.3928 25.1184 12.5767 25.0395 12.6525C24.8601 12.8364 24.9606 13.042 24.9354 13.2512C24.6017 13.5109 24.756 13.9725 24.6017 14.2899L24.652 14.3404C24.5882 14.4829 24.5435 14.6333 24.5192 14.7877C24.5192 14.968 24.39 15.0978 24.3398 15.3575C24.39 15.6425 24.1819 15.931 24.1065 16.2664C24.1065 16.3205 24.0276 16.3458 24.0276 16.371C24.0172 16.6583 23.992 16.9448 23.9522 17.2294C23.8733 17.6442 23.8482 18.1383 23.4606 18.4233C23.3817 18.4738 23.2525 18.5783 23.1771 18.5783C22.7896 18.5531 22.4272 18.6829 22.0396 18.6829C21.9356 18.6577 21.8315 18.6829 21.7275 18.6036C21.6234 18.5242 21.4189 18.6288 21.2897 18.6288C21.2646 18.6288 21.2107 18.6829 21.1856 18.6577C20.9163 18.6476 20.6484 18.6126 20.3854 18.5531C20.2683 18.5284 20.1603 18.4715 20.0735 18.3887C19.9867 18.3059 19.9245 18.2005 19.8938 18.0842C19.8435 17.9529 19.8168 17.8137 19.8149 17.6731C19.7808 17.5721 19.7556 17.4683 19.7395 17.3629C19.6369 17.038 19.5507 16.7082 19.4812 16.3746C19.273 16.3241 19.4812 16.169 19.4022 16.0897C19.3233 16.0103 19.5063 15.8805 19.456 15.7507C19.4022 15.7507 19.352 15.7254 19.2981 15.7254C19.2443 15.7254 19.273 15.6749 19.273 15.6497C19.2684 15.3183 19.1989 14.9911 19.0685 14.6867C19.0685 14.6362 19.0147 14.5821 19.0398 14.5063C19.0414 14.2106 18.9803 13.918 18.8604 13.6479C18.6645 13.23 18.5946 12.7636 18.6594 12.3062C18.3759 12.1223 18.4011 11.758 18.3257 11.4983C18.3128 11.3837 18.2863 11.2711 18.2468 11.1629C18.1469 10.953 18.1204 10.7154 18.1714 10.4884C18.0422 10.3045 17.9382 10.1999 17.8341 10.0448C17.8164 10.0854 17.7893 10.1213 17.7552 10.1494C17.73 10.1241 17.7049 10.0989 17.6798 10.0989L17.6547 10.07C17.6009 10.1746 17.4717 10.254 17.4466 10.3586C17.4214 10.6435 17.2133 10.8779 17.2384 11.2134C17.2528 11.4211 17.2528 11.6296 17.2384 11.8373C17.2737 12.0262 17.2688 12.2204 17.2241 12.4072C17.12 12.6164 17.2779 12.8256 17.0949 12.9554C17.0447 12.9807 17.0949 13.0853 17.0949 13.161C17.0949 13.4496 16.9657 13.7092 16.9406 14.0194C16.9009 14.3852 16.8313 14.7471 16.7325 15.1014C16.6742 15.5235 16.6407 15.9486 16.632 16.3746C16.62 16.533 16.5936 16.69 16.5531 16.8435V17.2402C16.4925 17.3797 16.4141 17.5107 16.3198 17.6298V18.279C16.1404 18.4088 15.961 18.5387 15.8282 18.6397H13.2015C13.095 18.5583 13.0108 18.4511 12.9569 18.3281C12.9029 18.205 12.8809 18.0703 12.893 17.9363C12.8642 17.9904 12.9181 17.9363 12.9181 17.9111C12.9181 17.4422 13.0975 17.0022 13.0975 16.5622C13.1661 16.3283 13.1928 16.0841 13.1764 15.8408C13.2015 15.6857 13.1262 15.5054 13.2267 15.3215C13.3271 15.1375 13.2015 14.9608 13.3558 14.7768C13.4348 14.6722 13.3056 14.4378 13.4348 14.3368C13.3822 14.1589 13.3556 13.9742 13.3558 13.7886C13.4218 13.6005 13.5188 13.4249 13.6429 13.2692V12.9843C13.6236 12.7044 13.686 12.4248 13.8223 12.18C13.8749 12.002 13.9015 11.8174 13.9013 11.6318C13.9013 11.5019 13.6932 11.3721 13.8726 11.1917C13.9766 11.0619 13.8726 10.8816 13.9766 10.7229C14.0807 10.5642 14.0017 10.3622 14.0017 10.2035C14.0638 10.1277 14.1098 10.04 14.1369 9.94574C14.1641 9.85147 14.1718 9.75263 14.1596 9.65526Z" fill="#21201E"/>
<path d="M33.0451 4.54088C32.8621 4.41104 33.0702 4.25234 32.9662 4.07201C32.8872 3.96741 33.0164 3.76183 32.8872 3.65723C32.9161 3.51091 32.9341 3.36262 32.941 3.2136V1.41023C32.9095 1.05304 32.9624 0.693417 33.0953 0.360667C33.1743 0.310172 33.3035 0.230824 33.4326 0.129835C33.6923 0.136656 33.9519 0.117324 34.2077 0.0721273C34.3369 -0.00361437 34.5414 0.126228 34.7244 0.176723C34.9016 0.227159 35.0892 0.227159 35.2663 0.176723C35.3955 0.151476 35.5749 0.0973745 35.6538 0.151476C35.8081 0.256071 35.9373 0.176723 36.0916 0.227217C36.2139 0.321814 36.3194 0.436428 36.4038 0.566251C36.4791 0.696094 36.2997 0.95578 36.4791 1.06038C36.454 1.32006 36.3787 1.5545 36.35 1.83943C36.3734 1.92476 36.3914 2.01149 36.4038 2.09912V3.78707C36.4038 3.91692 36.3248 4.04676 36.3248 4.20185C36.2755 4.43873 36.3031 4.68529 36.4038 4.90517C36.454 4.93041 36.454 5.03501 36.4038 5.0855C36.3643 5.36059 36.3643 5.63996 36.4038 5.91505C36.4289 6.20063 36.4289 6.48788 36.4038 6.77346C36.4038 6.9538 36.4791 7.13413 36.3248 7.29283C36.5079 7.42267 36.3787 7.60301 36.4038 7.78695C36.4038 7.9168 36.4791 8.04664 36.3248 8.14763C36.2997 8.14763 36.2997 8.22337 36.3248 8.24862C36.4791 8.53716 36.3787 8.79684 36.4038 9.05653C36.4173 9.31863 36.4521 9.57919 36.5079 9.83558C36.5234 10.0462 36.4678 10.2559 36.35 10.4307C36.3248 10.5154 36.3248 10.6057 36.35 10.6904C36.3907 10.7606 36.4165 10.8385 36.4257 10.9192C36.435 10.9999 36.4275 11.0816 36.4038 11.1593C36.2208 11.4694 36.3787 11.6786 36.5079 11.9383C36.4791 11.9888 36.454 12.0429 36.4038 12.1187L36.5079 12.2232C36.3248 12.822 36.4791 13.3666 36.3787 13.9365C36.3185 14.1718 36.3003 14.416 36.3248 14.6578C36.3769 14.7898 36.4037 14.9306 36.4038 15.0726C36.4038 15.2818 36.5079 15.4333 36.3248 15.5415C36.533 15.6424 36.2997 15.8011 36.3787 15.9562C36.4791 16.032 36.4038 16.2412 36.4038 16.3963C36.4038 16.5513 36.4791 16.6812 36.3248 16.7858C36.2998 16.8532 36.2998 16.9275 36.3248 16.995C36.4665 17.3628 36.4665 17.7705 36.3248 18.1383C36.2997 18.1888 36.3248 18.2393 36.3248 18.2934C36.2208 18.398 36.1203 18.4737 35.9911 18.6036C35.7383 18.538 35.4768 18.5124 35.216 18.5278C34.9039 18.5783 34.5953 18.5783 34.2831 18.6036C33.9877 18.5687 33.6884 18.5957 33.4039 18.6829C33.3907 18.6544 33.3738 18.6277 33.3537 18.6036C33.2747 18.4737 33.0451 18.5278 33.0702 18.3186C33.0702 18.1888 32.837 18.0842 33.0451 17.9291C32.8621 17.6189 33.0164 17.3052 32.941 16.995V16.2736C32.9662 16.1979 33.0164 16.1438 33.0451 16.0392C32.9906 15.9452 32.9632 15.8378 32.9662 15.729C32.9662 15.5739 32.8621 15.3683 33.0451 15.2096C32.8872 15.0293 32.9662 14.8706 32.941 14.7155V13.5505C32.941 13.4748 32.9159 13.3954 33.0451 13.3449C33.0451 13.3197 33.0702 13.2908 33.0451 13.2656C33.0164 13.0059 32.941 12.7462 32.8872 12.4072C33.1204 12.097 32.8119 11.6281 33.0702 11.2386C33.0054 11.1648 32.9609 11.0753 32.941 10.9789V9.8969C32.9383 9.8448 32.9461 9.79269 32.964 9.74372C32.9819 9.69474 33.0095 9.64992 33.0451 9.61197C32.941 9.56147 32.941 9.48212 32.941 9.40277C32.9446 9.27901 32.9702 9.15687 33.0164 9.0421C33.0476 8.9833 33.0662 8.91862 33.0712 8.85218C33.0761 8.78573 33.0672 8.71898 33.0451 8.65618C32.9628 8.47821 32.9269 8.28207 32.941 8.08631C32.9536 7.94834 32.9536 7.80951 32.941 7.67154C32.941 7.51645 32.8621 7.35775 32.9159 7.28201C32.9368 7.12665 32.9452 6.96985 32.941 6.81313C32.9662 6.68329 32.8872 6.5282 33.0451 6.39836C33.058 6.37007 33.0647 6.33931 33.0647 6.30819C33.0647 6.27707 33.058 6.24631 33.0451 6.21802C32.9448 5.83723 32.9096 5.44208 32.941 5.04943C32.9279 4.95241 32.9099 4.85611 32.8872 4.7609C32.941 4.68876 32.9661 4.61663 33.0451 4.54088Z" fill="#21201E"/>
<path d="M46.0385 9.50017C45.9882 9.37033 45.9631 9.31983 45.938 9.24048C46.0923 9.00605 45.9882 8.69587 46.0134 8.38208C46.0385 8.12239 46.0923 7.86271 46.1174 7.57777C46.0449 7.53196 45.9836 7.47032 45.938 7.39744C45.9631 7.37219 45.9882 7.37219 45.9882 7.34334C46.0134 6.87807 46.1677 6.48854 46.0923 6.04491C46.0672 5.88982 46.0134 5.70948 45.9631 5.50029C45.9631 5.47504 46.0134 5.42455 46.0134 5.3452C46.0385 5.19011 46.1425 4.98453 46.0672 4.82583C46.0228 4.64791 46.0047 4.46442 46.0134 4.28121C45.9861 4.1286 46.0141 3.97124 46.0923 3.83758C45.938 3.70774 46.0923 3.60314 46.0923 3.44805C46.1211 3.2667 46.1126 3.08133 46.0672 2.90343C46.0191 2.81976 45.9959 2.72396 46.0003 2.62742C46.0048 2.53089 46.0367 2.43766 46.0923 2.35882C46.0385 2.01978 46.0134 1.7096 45.9631 1.34532C46.0898 1.00605 46.1341 0.641274 46.0923 0.281331C46.1964 0.201983 46.3255 0.151488 46.426 0.0721401C46.4834 0.0878165 46.537 0.114788 46.5839 0.151488C46.7365 0.121031 46.8913 0.102939 47.0468 0.0973873C47.4595 0.0721401 47.847 0.0973873 48.2094 0.0721401C48.3637 0.0721401 48.5683 0.151488 48.7261 0.0973873C48.9112 0.102054 49.0943 0.137394 49.268 0.201983C49.3699 0.318998 49.4545 0.450194 49.5192 0.591511C49.494 0.746601 49.3649 0.851197 49.494 1.00629C49.5479 1.03514 49.5192 1.16498 49.5192 1.24073V2.30471C49.5192 2.43456 49.5981 2.53915 49.5192 2.66539C49.5066 2.79493 49.5066 2.92538 49.5192 3.05492C49.5095 3.12933 49.4838 3.20072 49.4438 3.26411C49.4841 3.35435 49.5096 3.45059 49.5192 3.54904C49.494 3.83397 49.5981 4.12251 49.4438 4.43269C49.4187 4.45794 49.494 4.56254 49.494 4.61303C49.494 4.66353 49.5479 4.82222 49.4438 4.97371C49.3935 5.09863 49.3935 5.23831 49.4438 5.36323C49.5205 5.68661 49.5459 6.02013 49.5192 6.35148C49.5192 6.40198 49.4689 6.45608 49.4689 6.50657C49.4689 6.55707 49.5192 6.63641 49.5192 6.68691C49.5275 6.94762 49.5107 7.20852 49.4689 7.46597C49.4092 7.75389 49.4265 8.05259 49.5192 8.33158C49.5611 8.57115 49.5525 8.8169 49.494 9.05293V9.46771C49.5192 9.6228 49.5981 9.88248 49.5192 9.98708C49.39 10.2215 49.5443 10.4271 49.494 10.6363C49.494 10.6615 49.5443 10.712 49.5443 10.7661V12.7138C49.5443 12.8184 49.4689 12.923 49.5443 13.0528C49.5747 13.1891 49.5927 13.328 49.5981 13.4676C49.5981 13.4928 49.6232 13.5181 49.5981 13.5433C49.4438 13.702 49.6735 14.0122 49.4689 14.142C49.494 14.1925 49.5443 14.2214 49.5443 14.2466C49.573 14.8165 49.5981 15.4152 49.573 15.9598C49.573 16.169 49.5192 16.3494 49.494 16.6596C49.4689 16.6596 49.5192 16.6884 49.5443 16.7389L49.494 16.7894C49.6483 17.2078 49.5192 17.6478 49.4438 18.1672C49.3649 18.2177 49.2608 18.3223 49.1065 18.4269C48.5117 18.5049 47.9121 18.5398 47.3123 18.5315C47.1638 18.542 47.0152 18.5112 46.883 18.4425C46.7507 18.3738 46.6397 18.2698 46.5624 18.1419C46.3921 17.8879 46.2456 17.6187 46.1246 17.3376C45.9954 16.9769 45.7371 16.6884 45.5828 16.2989C45.4769 16.0706 45.4067 15.8273 45.3746 15.5775C45.3506 15.3334 45.2613 15.1003 45.1163 14.9031C44.8918 14.6581 44.7477 14.3496 44.7036 14.0194C44.6468 13.8333 44.5773 13.6513 44.4955 13.4748C44.1548 12.991 43.883 12.4617 43.6881 11.9023C43.6206 11.7027 43.5159 11.5178 43.3795 11.3576C43.2755 11.2026 43.0673 10.6579 42.9669 10.4487C42.9053 10.2558 42.8172 10.0724 42.7049 9.90412C42.6428 9.78274 42.5545 9.67678 42.4465 9.59394C42.2686 9.68741 42.0961 9.79097 41.9298 9.90412C41.9836 10.0592 41.9047 10.1891 42.0339 10.3441C42.0465 10.4302 42.0465 10.5177 42.0339 10.6038V11.9816C42.0545 12.1136 42.0371 12.2488 41.9836 12.3711C41.9474 12.4433 41.9265 12.5222 41.9222 12.6029C41.9178 12.6836 41.9302 12.7644 41.9585 12.84C42.0318 12.9741 42.0583 13.129 42.0339 13.28C42.069 13.5753 42.052 13.8744 41.9836 14.1637V14.2142C42.0379 14.8543 42.0295 15.4982 41.9585 16.1366C41.8958 16.6037 41.9128 17.0782 42.0088 17.5396C42.0442 17.7189 42.0526 17.9024 42.0339 18.0842C41.9479 18.2042 41.8532 18.3175 41.7504 18.4233C41.6715 18.5783 41.492 18.5278 41.3629 18.6036C41.29 18.569 41.2102 18.5517 41.1296 18.5531C40.9756 18.5404 40.8208 18.5404 40.6667 18.5531C40.5375 18.5783 40.4084 18.4233 40.2505 18.5531C40.0459 18.3439 39.8629 18.5783 39.6584 18.5531C39.4349 18.5405 39.2109 18.5405 38.9874 18.5531C38.8723 18.5016 38.7667 18.4309 38.6752 18.3439C38.6217 18.1849 38.5962 18.0176 38.5998 17.8498C38.5711 17.1284 38.5998 16.4071 38.5711 15.7218C38.5711 15.592 38.6501 15.4874 38.5998 15.3611C38.5496 15.2349 38.5998 15.0509 38.5711 14.9464C38.5424 14.8418 38.5998 14.7372 38.5209 14.6362C38.475 14.5216 38.4662 14.3954 38.4958 14.2755C38.6451 13.8102 38.706 13.3208 38.6752 12.8328C38.6752 12.6236 38.5209 12.3892 38.5711 12.1836C38.5998 12.1295 38.625 12.079 38.6501 12.0249C38.6193 11.8973 38.6024 11.7667 38.5998 11.6354C38.5711 11.1953 38.5998 10.676 38.5711 10.1927C38.5711 10.0881 38.6501 9.98708 38.625 9.88248C38.5998 9.77789 38.6752 9.54345 38.625 9.43885C38.5905 9.30344 38.582 9.16269 38.5998 9.02408C38.5711 8.81849 38.5998 8.63455 38.5711 8.42897C38.5424 8.22338 38.6501 8.06829 38.5998 7.88074C38.5586 7.69305 38.5586 7.49857 38.5998 7.31088C38.5998 7.15579 38.5209 7.02594 38.6501 6.8961C38.546 6.76626 38.5998 6.63641 38.5711 6.50657C38.5424 6.37673 38.4707 6.22164 38.5209 6.1459C38.5998 5.99081 38.546 5.78522 38.625 5.62653C38.625 5.60128 38.6501 5.57243 38.6501 5.52193C38.5209 5.34159 38.5998 5.10715 38.5998 4.89796C38.5617 4.664 38.579 4.4243 38.6501 4.19826C38.7003 4.06841 38.625 3.93857 38.625 3.83758C38.596 3.79041 38.5777 3.7375 38.5711 3.68249C38.625 3.23886 38.5209 2.74834 38.6501 2.32996C38.7147 2.1729 38.7147 1.99651 38.6501 1.83944C38.546 1.6555 38.729 1.55091 38.6752 1.37057C38.6542 1.21522 38.6458 1.05841 38.6501 0.901691C38.6501 0.82595 38.5998 0.771848 38.5711 0.696107C38.5892 0.547798 38.6546 0.409354 38.7574 0.301447C38.8602 0.193539 38.995 0.121957 39.1417 0.0973873C39.4061 0.0471274 39.6775 0.0471274 39.9419 0.0973873C40.3967 0.152347 40.8545 0.178848 41.3126 0.176736C41.4418 0.331826 41.5961 0.566264 41.7755 0.775455C41.8329 0.822632 41.8791 0.882073 41.9108 0.949456C41.9424 1.01684 41.9587 1.09047 41.9585 1.16498C41.9884 1.30705 42.0317 1.44593 42.0877 1.57976C42.1128 1.57976 42.0877 1.57976 42.059 1.60501C42.2169 1.99453 42.3963 2.38406 42.5793 2.74834C42.6927 2.94712 42.7876 3.156 42.8628 3.37231C42.8628 3.42281 42.8879 3.50215 42.8879 3.5779C42.9318 3.76164 43.0206 3.93147 43.1463 4.07202C43.4216 4.47309 43.6066 4.92976 43.6881 5.41012C43.7072 5.43087 43.7218 5.45534 43.7311 5.48203C43.7404 5.50871 43.7441 5.53703 43.7419 5.56521C43.8243 5.65841 43.8932 5.76283 43.9465 5.87539C44.0003 5.97999 44.0003 6.13508 44.0757 6.23607C44.151 6.33706 44.0003 6.44526 44.1295 6.49575C44.1387 6.68432 44.2212 6.86172 44.3591 6.98988C44.6077 7.29613 44.7777 7.65899 44.8543 8.04665C44.9917 8.49781 45.2107 8.91964 45.5002 9.29098C45.5311 9.35021 45.5575 9.4117 45.5792 9.47492C45.7299 9.52542 45.8842 9.37754 46.0385 9.50017ZM45.7048 16.2772H45.8591V16.252H45.7048V16.2772ZM45.9093 16.5117V16.4071H45.8842V16.5117H45.9093Z" fill="#21201E"/>
<path d="M7.06182 31.2669C7.03311 31.2416 7.00799 31.2164 6.98288 31.2164C6.94347 31.2055 6.90217 31.2034 6.86188 31.2102C6.82158 31.2171 6.78327 31.2327 6.74963 31.2561C6.59533 31.2308 6.4518 31.2957 6.28674 31.2308C6.12167 31.1659 6.02838 31.202 5.90996 31.1515C5.78026 30.9633 5.6888 30.7513 5.64083 30.5275C5.61231 30.4528 5.59889 30.3731 5.60136 30.2931C5.6147 30.0911 5.5738 29.8893 5.48295 29.7088C5.44706 29.5537 5.40759 29.3986 5.38247 29.2543C5.35735 29.11 5.28918 28.8936 5.23894 28.6989C5.20648 28.5977 5.19309 28.4912 5.19947 28.3851C5.1917 28.3239 5.17849 28.2636 5.16 28.2047C5.13654 28.0569 5.09807 27.9119 5.04517 27.7719C4.98058 27.7034 4.99493 27.6024 4.98058 27.5086C4.97354 27.426 4.96034 27.344 4.94111 27.2634C4.86575 27.0578 4.91599 26.8234 4.77604 26.6394C4.74734 26.6142 4.77604 26.5745 4.77604 26.5384C4.78475 26.3782 4.74334 26.2193 4.65763 26.084C4.62928 26.0576 4.59469 26.039 4.55715 26.0299C4.51244 26.0436 4.46918 26.0618 4.42797 26.084C4.39134 26.2024 4.36139 26.3228 4.33826 26.4447C4.29484 26.6504 4.23728 26.8528 4.16602 27.0506C4.13014 27.2201 4.09067 27.3752 4.0512 27.5447C4.03164 27.6216 4.01844 27.7 4.01173 27.7791C4.0168 27.8593 3.99939 27.9393 3.96149 28.01C3.96149 28.0497 3.93637 28.1001 3.92202 28.1398C3.89137 28.2423 3.86976 28.3473 3.85743 28.4536C3.84243 28.5627 3.80712 28.6679 3.75336 28.7638C3.67758 28.9434 3.65155 29.1403 3.67801 29.3337C3.67801 29.3625 3.70313 29.3878 3.72825 29.4274C3.69449 29.4393 3.65963 29.4478 3.62418 29.4527C3.62418 29.4527 3.62418 29.4779 3.62418 29.4924C3.62418 29.5681 3.62418 29.6474 3.58471 29.7124C3.54524 29.7773 3.60983 29.8422 3.54524 29.9071C3.54524 30.1019 3.43041 30.2678 3.44118 30.4662C3.43645 30.5418 3.41948 30.6161 3.39094 30.6862C3.36283 30.8082 3.32809 30.9286 3.28688 31.0469C3.23664 31.0721 3.19717 31.137 3.11823 31.1767C3.02457 31.2312 2.9178 31.2586 2.80963 31.2561H2.5405C2.48668 31.2561 2.42209 31.2957 2.37185 31.2164C2.37185 31.2164 2.33238 31.2164 2.30726 31.2164C2.16307 31.2315 2.0203 31.2581 1.88025 31.2957C1.75443 31.2255 1.61123 31.193 1.46759 31.202C1.44247 31.1767 1.42812 31.137 1.403 31.1118C1.34401 31.0483 1.31185 30.9642 1.31329 30.8773C1.30856 30.8157 1.29527 30.755 1.27382 30.697C1.25417 30.6287 1.24096 30.5586 1.23435 30.4878C1.24174 30.4555 1.25513 30.4249 1.27382 30.3976C1.31329 30.2931 1.22358 30.1776 1.22358 30.073C1.21715 29.9816 1.19016 29.8928 1.14464 29.8134C1.11872 29.7751 1.10486 29.7298 1.10486 29.6835C1.10486 29.6372 1.11872 29.592 1.14464 29.5537C1.18411 29.4635 1.14464 29.3481 1.14464 29.2435C1.05493 29.1894 1.08005 29.074 1.02981 28.9946C1.0298 28.8518 1.01658 28.7094 0.990338 28.569C0.987688 28.463 0.956703 28.3596 0.900629 28.2697C0.880682 28.2105 0.872157 28.1481 0.875511 28.0857C0.887905 27.9462 0.874523 27.8056 0.836039 27.6709C0.798051 27.5635 0.784561 27.4489 0.796567 27.3355C0.80237 27.1719 0.775528 27.0088 0.717624 26.8558C0.717624 26.8558 0.717624 26.827 0.717624 26.8161C0.717624 26.6322 0.717624 26.4555 0.678152 26.2824C0.651176 26.0539 0.604348 25.8282 0.538206 25.6079C0.531269 25.577 0.531269 25.545 0.538206 25.5141C0.513088 25.3482 0.513088 25.1787 0.487969 25.0092C0.481097 24.9596 0.467828 24.9111 0.448498 24.8649C0.405371 24.7225 0.391934 24.5727 0.409026 24.4249C0.409026 24.3455 0.358789 24.2698 0.409026 24.1904C0.358789 24.1399 0.358789 24.0642 0.330082 23.9849C0.318585 23.9075 0.293042 23.8329 0.254727 23.7648C0.212215 23.6999 0.193212 23.6222 0.200902 23.5448V23.1553C0.201663 23.0473 0.179649 22.9404 0.136311 22.8415C0.090833 22.7269 0.0688634 22.6042 0.0717212 22.4808C0.0812674 22.4411 0.081706 22.3996 0.0730041 22.3596C0.0643022 22.3196 0.0466866 22.2822 0.0214844 22.25C0.0410278 22.2294 0.0579064 22.2064 0.0717212 22.1815C0.0664333 22.1638 0.0664333 22.145 0.0717212 22.1274C0.252773 22.0416 0.454666 22.0102 0.653033 22.0372C0.748495 22.0713 0.851081 22.0799 0.950866 22.0625C1.10955 22.0251 1.27361 22.0165 1.43529 22.0372C1.4821 22.0306 1.52978 22.0346 1.57483 22.049C1.61988 22.0634 1.66115 22.0877 1.69559 22.1202C1.73003 22.1528 1.75676 22.1927 1.77382 22.237C1.79087 22.2813 1.79781 22.3289 1.79413 22.3762C1.79413 22.4664 1.84436 22.5422 1.8336 22.6468C1.79572 22.7931 1.81231 22.9483 1.88025 23.0832V23.1084C1.85513 23.4691 1.95919 23.8767 1.93407 24.2662C1.93407 24.3419 1.99866 24.4213 1.98431 24.5114C1.97175 24.5953 1.98555 24.6811 2.02378 24.7567C2.0489 24.8216 1.99866 24.9262 2.06325 25.0056C2.09962 25.2588 2.11642 25.5144 2.11349 25.7702C2.08905 25.8616 2.09796 25.9589 2.13861 26.0443C2.19243 26.1092 2.13861 26.2246 2.19243 26.3292C2.21097 26.4014 2.21097 26.4771 2.19243 26.5493C2.17225 26.598 2.16494 26.6512 2.17123 26.7037C2.17752 26.7561 2.19718 26.806 2.22832 26.8486V27.2526C2.34673 27.3031 2.22832 27.4185 2.3575 27.4581C2.19243 27.6385 2.39697 27.7972 2.33238 27.9523C2.3862 28.0172 2.42209 28.0821 2.47591 28.147C2.68045 28.0677 2.66968 27.9631 2.68045 27.808C2.68045 27.7431 2.68045 27.6673 2.68045 27.6024C2.68832 27.5291 2.71025 27.4581 2.74504 27.3932C2.74504 27.3932 2.74504 27.368 2.74504 27.3536C2.74504 27.1985 2.77016 27.0289 2.78092 26.8739C2.80307 26.7067 2.83786 26.5415 2.88498 26.3797C2.92756 26.236 2.95758 26.0887 2.97469 25.9397C2.97469 25.9397 3.0034 25.9 3.01416 25.8748C3.02493 25.8495 2.98905 25.8495 2.98905 25.8351C2.98905 25.7594 2.98905 25.6945 3.01416 25.6295C3.03404 25.5441 3.04724 25.4573 3.05364 25.3698C3.05364 25.2905 3.02852 25.1859 3.05364 25.1462C3.07876 25.1066 3.05364 24.9659 3.11823 24.8865C3.18282 24.8072 3.11823 24.7567 3.11823 24.6665C3.13447 24.4669 3.19191 24.2728 3.28688 24.0967C3.28688 23.9019 3.32635 23.6927 3.33712 23.4871C3.33001 23.4661 3.33001 23.4433 3.33712 23.4222C3.36346 23.359 3.38505 23.2939 3.40171 23.2274C3.33712 23.1733 3.40171 23.1084 3.40171 23.0579C3.42544 22.814 3.49742 22.5774 3.61342 22.3618C3.63854 22.2825 3.61342 22.1779 3.68877 22.1021C3.75614 22.077 3.82102 22.0456 3.88254 22.0084C3.90189 22.0289 3.92357 22.047 3.94713 22.0625C3.98419 22.0428 4.02419 22.0294 4.06555 22.0228C4.16764 22.0066 4.2708 21.9982 4.37415 21.9975C4.46104 21.9929 4.54813 22.0014 4.63251 22.0228C4.85941 22.0558 5.08872 22.069 5.31788 22.0625L5.41836 22.1671C5.42111 22.4279 5.48374 22.6847 5.60136 22.9173V22.9569C5.62648 23.1517 5.64083 23.3176 5.66595 23.5557C5.66595 23.5809 5.70542 23.6061 5.73054 23.6206C5.73017 23.8517 5.7518 24.0824 5.79513 24.3095C5.79617 24.4161 5.81812 24.5215 5.85972 24.6196C5.8992 24.7098 5.83461 24.8541 5.8992 24.9803C5.82025 25.0344 5.8992 25.0993 5.8992 25.1643C5.8897 25.2372 5.90902 25.311 5.95302 25.3698C6.00326 25.4492 5.97814 25.5141 5.9889 25.579C6.07626 25.779 6.1203 25.9954 6.11808 26.2138C6.12594 26.3142 6.13912 26.4142 6.15756 26.5132V26.7584C6.19798 26.8231 6.22824 26.8937 6.24726 26.9676C6.2721 27.0217 6.29018 27.0786 6.30109 27.1371C6.31101 27.1979 6.32419 27.2581 6.34056 27.3175C6.3586 27.3808 6.36707 27.4464 6.36568 27.5123C6.34056 27.6024 6.43027 27.6277 6.40515 27.6926C6.3946 27.7062 6.38687 27.7219 6.38241 27.7386C6.37796 27.7553 6.37687 27.7727 6.37921 27.7899C6.38155 27.807 6.38727 27.8235 6.39604 27.8384C6.40481 27.8533 6.41645 27.8662 6.43027 27.8765C6.34056 27.927 6.48051 27.9811 6.43027 28.0316C6.47476 28.0577 6.52162 28.0794 6.57022 28.0965C6.60512 28.0415 6.64474 27.9896 6.68863 27.9415C6.66217 27.7759 6.69389 27.6063 6.77834 27.4618C6.77834 27.4365 6.77834 27.3968 6.77834 27.368C6.77834 27.3391 6.77834 27.2273 6.81781 27.1624C6.85728 27.0975 6.79269 26.9929 6.8824 26.928C6.97211 26.863 6.79269 26.863 6.8824 26.7873C6.97211 26.7116 6.8824 26.6827 6.8824 26.6286C6.8752 26.582 6.8752 26.5345 6.8824 26.4879C6.8686 26.3911 6.88229 26.2924 6.92187 26.203C6.94699 26.1381 6.92187 26.0335 6.94699 25.9541C6.967 25.8554 6.967 25.7536 6.94699 25.6548C6.97983 25.3844 6.99302 25.112 6.98646 24.8397C7.07617 24.6449 7.04029 24.4357 7.13 24.2265C7.16487 24.1097 7.17824 23.9875 7.16947 23.8658C7.16947 23.7504 7.16947 23.6206 7.16947 23.5052C7.16947 23.3897 7.14076 23.2707 7.19459 23.2058C7.24841 23.1409 7.15512 22.9966 7.25918 22.9461C7.24307 22.8244 7.25661 22.7007 7.29865 22.5854C7.29865 22.5602 7.29865 22.5205 7.29865 22.5061C7.19459 22.3366 7.29865 22.2067 7.41348 22.1057L7.46371 22.0516C7.59357 22.0463 7.72299 22.033 7.85126 22.012C7.90508 22.012 7.98044 21.947 8.01991 21.9867C8.07329 22.0086 8.13114 22.0173 8.18856 22.012C8.38233 22.012 8.5761 22.012 8.74475 22.012C8.91341 22.012 8.98876 22.1923 8.98876 22.3726C8.98478 22.4695 8.96789 22.5653 8.93852 22.6576C8.89848 22.7607 8.88491 22.8724 8.89905 22.9822C8.89905 23.0976 8.89905 23.1914 8.79499 23.2563C8.79115 23.3651 8.79958 23.474 8.82011 23.5809C8.82011 23.6711 8.7304 23.7612 8.74475 23.8658C8.76991 23.9591 8.76991 24.0575 8.74475 24.1508C8.70528 24.3203 8.64069 24.4898 8.59045 24.6701C8.59045 24.6701 8.59045 24.7206 8.59045 24.7495C8.59045 24.7783 8.56534 24.7856 8.56534 24.8144C8.60481 25.1498 8.50075 25.4636 8.52586 25.799C8.50075 25.8243 8.47563 25.8531 8.46127 25.864C8.37157 26.0984 8.41104 26.3437 8.30698 26.5529V26.5781C8.33209 26.7476 8.25674 26.9388 8.2675 27.1119C8.25909 27.2693 8.23383 27.4253 8.19215 27.5772C8.19215 27.5772 8.19215 27.6313 8.19215 27.6565C8.18617 27.8618 8.15972 28.066 8.1132 28.2661C8.06957 28.4016 8.03599 28.5403 8.01273 28.6808C7.99123 28.8279 7.99123 28.9774 8.01273 29.1245C8.01273 29.175 7.97326 29.2255 7.97326 29.2651C7.94814 29.3697 7.94814 29.4851 7.91943 29.6258C7.90063 29.693 7.87539 29.7582 7.84408 29.8206C7.86108 29.8573 7.8699 29.8973 7.8699 29.9378C7.8699 29.9783 7.86108 30.0183 7.84408 30.055C7.79968 30.1986 7.77789 30.3483 7.77949 30.4986C7.78921 30.6224 7.76696 30.7467 7.7149 30.8593C7.70721 30.932 7.68359 31.002 7.64574 31.0643C7.60789 31.1267 7.55675 31.1799 7.49601 31.22C7.35606 31.22 7.22688 31.2705 7.10847 31.1659C7.09856 31.2019 7.0828 31.236 7.06182 31.2669V31.2669Z" fill="#21201E"/>
<path d="M14.1775 22.0516C14.2976 22.0728 14.4211 22.0629 14.5363 22.0228C14.6153 22.0228 14.6906 22.0624 14.7444 22.0516C14.7983 22.0408 14.8593 22.0516 14.9239 22.0228C14.9753 22.019 15.0249 22.0016 15.0674 21.9723C15.0767 21.9878 15.0899 22.0006 15.1056 22.0094C15.1213 22.0183 15.1391 22.0229 15.1571 22.0228C15.2468 22.0228 15.3652 22.0228 15.4801 22.0624C15.5346 22.0801 15.5931 22.0809 15.6481 22.0648C15.7031 22.0488 15.752 22.0165 15.7887 21.9723C15.8459 22.0007 15.908 22.0179 15.9717 22.0228H16.553L16.9118 22.0769C16.9513 22.1165 16.9907 22.1526 17.0661 22.2175V22.6215C17.0661 22.7008 17.0266 22.7658 17.0661 22.8163C17.0747 22.847 17.076 22.8794 17.0698 22.9108C17.0635 22.9421 17.05 22.9715 17.0302 22.9966C17.145 23.1156 17.0302 23.2058 17.0051 23.2959C16.98 23.3861 16.8616 23.415 16.7575 23.415C16.7327 23.4097 16.707 23.4097 16.6821 23.415C16.6176 23.415 16.5637 23.4402 16.5243 23.415C16.3684 23.3698 16.2029 23.3698 16.047 23.415C15.9511 23.416 15.8555 23.4026 15.7635 23.3753C15.7419 23.4135 15.7154 23.4487 15.6846 23.4799C15.62 23.4546 15.5698 23.4546 15.5446 23.415C15.5203 23.3981 15.4925 23.3871 15.4632 23.3827C15.434 23.3783 15.4042 23.3807 15.376 23.3897C15.2585 23.4219 15.1346 23.4219 15.0172 23.3897C14.9194 23.3626 14.8171 23.3567 14.7169 23.3722C14.6167 23.3877 14.5209 23.4244 14.4358 23.4799C14.3964 23.5304 14.3461 23.5953 14.2923 23.6747C14.2385 23.754 14.2923 23.8694 14.2421 23.9596C14.1918 24.0498 14.2421 24.075 14.2421 24.1147C14.2421 24.1544 14.3067 24.2049 14.2672 24.2698C14.2446 24.3194 14.2359 24.3743 14.2421 24.4285C14.2421 24.4934 14.3067 24.5439 14.3067 24.6232C14.3067 24.7026 14.2672 24.7531 14.3318 24.8036C14.3964 24.8541 14.2564 24.9082 14.3318 24.9478C14.2959 24.9731 14.3318 25.0128 14.3318 25.0488C14.3318 25.0849 14.3067 25.1678 14.2959 25.2183C14.2899 25.2964 14.2899 25.3748 14.2959 25.4528C14.3346 25.5283 14.3484 25.6142 14.3354 25.698C14.3875 25.7697 14.4477 25.835 14.5148 25.8928H15.9896C16.1583 25.9325 16.2085 26.0623 16.2587 26.2174V27.1155C16.2124 27.1754 16.1608 27.2309 16.1044 27.2814C15.8752 27.2644 15.6448 27.2778 15.4191 27.3211L15.3832 27.2958C15.2387 27.3356 15.0863 27.3356 14.9418 27.2958C14.7875 27.3211 14.583 27.3463 14.4143 27.386C14.3856 27.4257 14.3497 27.505 14.2959 27.5808C14.2959 27.7395 14.2959 27.9054 14.2959 28.0605C14.2693 28.2458 14.2693 28.4341 14.2959 28.6195C14.2959 28.6952 14.2457 28.7746 14.3354 28.8648C14.3103 28.9297 14.2313 29.009 14.3354 29.074C14.2965 29.1399 14.2739 29.2143 14.2696 29.2909C14.2652 29.3675 14.2791 29.444 14.3103 29.514C14.3138 29.5603 14.3321 29.6043 14.3625 29.6394C14.3929 29.6745 14.4337 29.6988 14.4789 29.7087C14.5779 29.7628 14.6892 29.7901 14.8019 29.7881C14.9813 29.7881 15.1607 29.7881 15.3437 29.7881C15.3914 29.7918 15.4384 29.8015 15.4836 29.8169C15.5223 29.7932 15.5678 29.7831 15.6128 29.7881C15.782 29.7783 15.9518 29.788 16.1188 29.8169C16.2721 29.8421 16.4284 29.8421 16.5817 29.8169H16.919L17.023 29.9865C16.9964 30.1052 16.9964 30.2284 17.023 30.3471C17.0486 30.4888 17.0618 30.6324 17.0625 30.7763C17.0665 30.8261 17.0601 30.8761 17.0439 30.9232C17.0277 30.9704 17.0019 31.0136 16.9681 31.0502C16.9344 31.0868 16.8935 31.116 16.848 31.1359C16.8024 31.1558 16.7533 31.166 16.7037 31.1659C16.3043 31.2057 15.9027 31.2189 15.5016 31.2055C15.3907 31.1929 15.2788 31.1929 15.1679 31.2055C15.0638 31.2452 14.9849 31.2055 14.8952 31.2055C14.7757 31.2134 14.6558 31.2134 14.5363 31.2055H13.9335C13.8212 31.1983 13.7085 31.1983 13.5962 31.2055C13.5208 31.2055 13.4419 31.1659 13.3665 31.2452C13.3127 31.1803 13.2373 31.2055 13.1584 31.1911C13.1144 31.1887 13.0709 31.1802 13.0292 31.1659C12.9395 31.2055 12.9395 31.2055 12.7852 31.1911C12.7442 31.1873 12.7046 31.1742 12.6693 31.1528C12.6341 31.1314 12.6041 31.1023 12.5817 31.0676C12.5592 31.0328 12.5449 30.9935 12.5398 30.9524C12.5346 30.9114 12.5388 30.8697 12.552 30.8304C12.5725 30.6476 12.5414 30.4626 12.4623 30.2966C12.4623 30.2714 12.4623 30.2317 12.4623 30.2209C12.5268 30.1019 12.4874 30.0117 12.4981 29.9215C12.4981 29.8055 12.5077 29.6897 12.5268 29.5753C12.5627 29.4743 12.5914 29.3553 12.4981 29.2795C12.4981 29.1749 12.473 29.0848 12.5268 28.9802C12.5626 28.8886 12.5626 28.7868 12.5268 28.6952C12.4874 28.4625 12.4874 28.2247 12.5268 27.9919C12.552 27.927 12.5268 27.8621 12.5268 27.7863V27.1912C12.5285 27.1782 12.5329 27.1658 12.5397 27.1546C12.5465 27.1434 12.5556 27.1338 12.5663 27.1263C12.5395 27.1026 12.5207 27.0711 12.5125 27.0361C12.4967 26.8577 12.5063 26.678 12.5412 26.5023C12.5412 26.5023 12.5125 26.4771 12.5125 26.4518C12.5268 26.3659 12.5268 26.2781 12.5125 26.1922C12.5125 26.0768 12.6166 25.9577 12.5125 25.8676C12.5125 25.763 12.4766 25.6584 12.5412 25.5574C12.5502 25.5518 12.5574 25.5437 12.5619 25.5341C12.5663 25.5245 12.5679 25.5138 12.5663 25.5033C12.5041 25.1961 12.486 24.8815 12.5125 24.5691C12.5158 24.4333 12.5314 24.2981 12.5591 24.1652C12.5619 24.1147 12.554 24.0642 12.5361 24.017C12.5182 23.9698 12.4906 23.9269 12.4551 23.8911C12.4551 23.7612 12.4945 23.6206 12.5053 23.4655V23.0507C12.5053 22.9605 12.534 22.8559 12.4694 22.791C12.4624 22.7816 12.4587 22.7703 12.4587 22.7585C12.4587 22.7468 12.4624 22.7354 12.4694 22.7261C12.534 22.6467 12.4694 22.5566 12.5053 22.4916C12.5412 22.4267 12.4551 22.3474 12.5053 22.2716C12.5556 22.1959 12.6345 22.0877 12.7493 22.0228H13.8617C13.8586 22.0289 13.8569 22.0357 13.8569 22.0426C13.8569 22.0495 13.8586 22.0563 13.8617 22.0624C13.8617 22.0624 13.8617 22.0372 13.8976 22.0228C13.9918 22.0175 14.0863 22.0272 14.1775 22.0516V22.0516Z" fill="#21201E"/>
<path d="M25.7644 27.3607C25.7387 27.3675 25.7136 27.376 25.689 27.386V27.4112C25.7084 27.4372 25.7209 27.4678 25.7253 27.4999C25.7297 27.5321 25.7258 27.5649 25.7141 27.5952C25.6352 27.725 25.689 27.826 25.6639 27.9306C25.6388 28.0352 25.6998 28.0749 25.6639 28.1398C25.628 28.2047 25.6998 28.2444 25.7141 28.2805L25.6639 28.3346C25.689 28.3346 25.6998 28.3346 25.6998 28.3742C25.6998 28.4139 25.7285 28.4897 25.6998 28.5041C25.6711 28.5185 25.6998 28.569 25.6998 28.6051C25.6998 28.6411 25.7249 28.7241 25.6998 28.7638C25.6747 28.8034 25.6747 28.9297 25.6495 29.009C25.6368 29.1884 25.593 29.3641 25.5204 29.5284C25.4594 29.6654 25.416 29.8096 25.3912 29.9576C25.3878 30.0033 25.3744 30.0477 25.3517 30.0874C25.3517 30.1127 25.2728 30.1271 25.2476 30.1524C25.2225 30.1776 25.2728 30.1524 25.2728 30.1776C25.2508 30.238 25.2206 30.2951 25.1831 30.3471C25.1042 30.4725 25.018 30.5929 24.9247 30.7078C24.9095 30.742 24.8875 30.7727 24.8601 30.798C24.7294 30.8971 24.6091 31.0095 24.5013 31.1334C24.4249 31.2113 24.3254 31.2619 24.2178 31.2777C24.1544 31.3021 24.0951 31.3362 24.042 31.3787C24.0341 31.4064 24.0207 31.4322 24.0025 31.4544C24.0025 31.4292 23.9774 31.4183 23.963 31.3895C23.7356 31.4923 23.4933 31.5581 23.2453 31.5842C23.091 31.6636 22.908 31.6131 22.7537 31.6383C22.5851 31.5482 22.42 31.6383 22.2765 31.5482C22.2263 31.5085 22.1473 31.5482 22.0827 31.5482C21.9697 31.4883 21.8489 31.4446 21.7239 31.4183C21.6471 31.404 21.5732 31.3772 21.505 31.339C21.3572 31.2738 21.2176 31.1915 21.0888 31.0937C20.9858 30.9882 20.891 30.8748 20.8053 30.7547C20.7802 30.7294 20.7658 30.679 20.7407 30.6645C20.6082 30.553 20.5089 30.407 20.4536 30.2425C20.4521 30.1811 20.4642 30.1201 20.4891 30.064C20.5139 30.0079 20.5508 29.958 20.5971 29.9179C20.7569 29.7371 20.8921 29.5358 20.999 29.3192C21.0925 29.1501 21.2006 28.9896 21.322 28.8395C21.357 28.8125 21.3957 28.7907 21.4368 28.7746C21.5158 28.8287 21.5911 28.8936 21.566 28.9838C21.7203 29.1136 21.7095 29.3192 21.8244 29.4491C21.9392 29.5789 22.0827 29.7484 22.2119 29.853C22.3021 29.9077 22.4045 29.9387 22.5097 29.9432C22.5492 29.9432 22.5743 29.9684 22.6389 29.9828C22.7035 29.9973 22.743 29.9179 22.8327 29.9828C22.8862 30.0062 22.9445 30.0161 23.0027 30.0117C23.0608 30.0073 23.117 29.9887 23.1664 29.9576C23.3401 29.8809 23.505 29.7854 23.658 29.6727C23.7767 29.5448 23.8575 29.3862 23.8912 29.2146C23.9527 29.0393 23.9878 28.8557 23.9953 28.67C23.9953 28.4897 23.9953 28.3093 23.9953 28.1001C23.9953 28.0352 24.0204 27.9703 23.9558 27.9054C23.8912 27.8404 23.9558 27.8116 23.981 27.7611C24.0616 27.6058 24.0833 27.4263 24.042 27.2562C24.0122 27.0809 23.9954 26.9037 23.9917 26.726C23.9917 26.6214 24.0168 26.542 23.9523 26.4518C23.8877 26.3617 23.9271 26.322 23.9523 26.2571C24.0223 26.0123 24.0407 25.7556 24.0061 25.5033C23.902 25.3734 24.0061 25.2436 24.0061 25.1137C24.0061 24.8144 24.0061 24.5295 24.0061 24.259C24.0061 24.1291 24.0455 24.0353 24.0455 23.9343C24.0653 23.8271 24.0653 23.717 24.0455 23.6097C24.001 23.3781 23.9877 23.1416 24.0061 22.9064C24.0061 22.672 24.0061 22.4412 24.0061 22.2175C24.0061 22.2175 24.0061 22.2175 24.0061 22.1923L24.1496 22.0516C24.2218 22.0344 24.2949 22.0212 24.3685 22.0119C24.51 22.0629 24.6647 22.0629 24.8063 22.0119C24.8063 22.0119 24.8457 22.0119 24.8601 22.0119C24.8745 22.0119 25.0144 22.0769 25.0395 22.0516C25.0646 22.0264 25.1579 22.0264 25.2082 22.0119C25.3768 21.9867 25.4917 22.0661 25.6101 22.0661C25.647 22.092 25.6807 22.1223 25.7105 22.1562C25.7153 22.1727 25.7153 22.1902 25.7105 22.2067C25.7105 22.351 25.6603 22.5061 25.75 22.6503C25.6962 22.7153 25.7249 22.791 25.7105 22.8704C25.646 23.0597 25.646 23.2653 25.7105 23.4546C25.7178 23.5109 25.7178 23.5679 25.7105 23.6242C25.7105 23.6602 25.7751 23.6999 25.7105 23.7396C25.6987 23.8755 25.7121 24.0125 25.75 24.1435C25.7209 24.2062 25.7057 24.2745 25.7057 24.3437C25.7057 24.4129 25.7209 24.4812 25.75 24.5439C25.7008 24.6368 25.6703 24.7385 25.6603 24.8432C25.6971 25.158 25.7139 25.4749 25.7105 25.7918C25.7105 25.8567 25.7357 25.9217 25.6603 25.9974V26.0371C25.6603 26.102 25.75 26.1561 25.7105 26.221C25.6881 26.2497 25.672 26.2829 25.6633 26.3183C25.6546 26.3538 25.6536 26.3907 25.6603 26.4266C25.6962 26.5456 25.7105 26.7007 25.7357 26.8161C25.7551 26.9585 25.7551 27.1029 25.7357 27.2453C25.7357 27.2706 25.7357 27.285 25.7105 27.3211C25.6854 27.3571 25.7392 27.3463 25.7644 27.3607Z" fill="#21201E"/>
<path d="M30.8598 22.0516C30.9799 22.0728 31.1034 22.0629 31.2186 22.0228C31.2939 22.0228 31.3729 22.0624 31.4231 22.0516C31.4734 22.0408 31.5415 22.0516 31.6061 22.0228C31.6565 22.0191 31.7049 22.0016 31.7461 21.9723C31.7561 21.9871 31.7694 21.9994 31.785 22.0082C31.8006 22.0169 31.818 22.0219 31.8358 22.0228C31.9291 22.0228 32.0439 22.0228 32.1587 22.0624C32.2138 22.0799 32.2728 22.0806 32.3283 22.0646C32.3838 22.0485 32.4334 22.0164 32.4709 21.9723C32.5269 22.0007 32.5878 22.0179 32.6503 22.0228H33.2317C33.3501 22.0228 33.4649 22.0624 33.5905 22.0769C33.6406 22.1266 33.6933 22.1735 33.7484 22.2175V22.6215C33.7484 22.7008 33.7089 22.7658 33.7484 22.8163C33.7557 22.8474 33.756 22.8797 33.7491 22.9109C33.7423 22.9422 33.7285 22.9714 33.7089 22.9966C33.8273 23.1156 33.7089 23.2058 33.6838 23.2959C33.6587 23.3861 33.5403 23.415 33.4398 23.415C33.4138 23.4094 33.3869 23.4094 33.3608 23.415C33.2962 23.415 33.246 23.4402 33.2065 23.415C33.0506 23.3698 32.8852 23.3698 32.7293 23.415C32.6322 23.416 32.5355 23.4026 32.4422 23.3753C32.4206 23.4126 32.3953 23.4476 32.3669 23.4799C32.3023 23.4546 32.2485 23.4546 32.2233 23.415C32.1991 23.3979 32.1713 23.3867 32.142 23.3823C32.1127 23.3779 32.0828 23.3805 32.0547 23.3897C31.9372 23.4221 31.8133 23.4221 31.6958 23.3897C31.5981 23.3626 31.4958 23.3567 31.3956 23.3722C31.2954 23.3877 31.1996 23.4244 31.1145 23.4799C31.0646 23.5424 31.0179 23.6074 30.9746 23.6747C30.9746 23.7648 30.9746 23.8694 30.9208 23.9596C30.8669 24.0498 30.9208 24.075 30.9208 24.1147C30.9208 24.1544 30.9854 24.2048 30.9459 24.2698C30.9233 24.3194 30.9146 24.3743 30.9208 24.4285C30.9208 24.4934 30.9854 24.5439 30.9854 24.6232C30.9854 24.7026 30.9459 24.7531 31.0105 24.8036C31.0751 24.8541 30.9315 24.9082 31.0105 24.9478C30.971 24.9731 31.0105 25.0128 31.0105 25.0488C31.0105 25.0849 30.9854 25.1678 30.971 25.2183C30.9631 25.2963 30.9631 25.3748 30.971 25.4528C31.0081 25.5288 31.0219 25.6142 31.0105 25.698C31.0626 25.7697 31.1228 25.835 31.1899 25.8928H32.6539C32.8226 25.9325 32.8728 26.0623 32.9266 26.2174V27.1155C32.8793 27.1745 32.8278 27.23 32.7723 27.2814C32.5431 27.2643 32.3127 27.2776 32.087 27.3211L32.0475 27.2958C31.9042 27.3354 31.753 27.3354 31.6097 27.2958C31.4554 27.3211 31.2509 27.3463 31.0786 27.386C31.0535 27.4257 31.0141 27.505 30.9638 27.5808C30.9638 27.7395 30.9638 27.9054 30.9638 28.0605C30.9389 28.246 30.9389 28.434 30.9638 28.6195C30.9638 28.6952 30.91 28.7746 31.0033 28.8648C30.9746 28.9297 30.8992 29.009 31.0033 29.074C30.9638 29.1396 30.9406 29.2139 30.9357 29.2905C30.9307 29.367 30.944 29.4437 30.9746 29.514C30.9787 29.5602 30.9972 29.6039 31.0275 29.6388C31.0578 29.6738 31.0983 29.6983 31.1432 29.7087C31.2423 29.7627 31.3535 29.7901 31.4662 29.7881C31.6456 29.7881 31.825 29.7881 32.008 29.7881C32.0568 29.7921 32.105 29.8018 32.1516 29.8169C32.1899 29.7924 32.2356 29.7822 32.2807 29.7881C32.4487 29.7782 32.6173 29.7879 32.7831 29.8169C32.9376 29.8425 33.0951 29.8425 33.2496 29.8169H33.5833L33.6874 29.9865C33.6588 30.105 33.6588 30.2286 33.6874 30.3471C33.7173 30.5052 33.7317 30.6659 33.7304 30.8268C33.7304 31.0721 33.6013 31.1875 33.3716 31.2164C32.9734 31.2562 32.573 31.2694 32.1731 31.256C32.061 31.2434 31.9479 31.2434 31.8358 31.256C31.7317 31.2957 31.6564 31.256 31.5631 31.256C31.4436 31.2641 31.3237 31.2641 31.2042 31.256H30.6122C30.4998 31.2488 30.3872 31.2488 30.2749 31.256C30.1959 31.256 30.1206 31.2164 30.0416 31.2957C29.9914 31.2308 29.9124 31.256 29.8371 31.2416C29.7931 31.2392 29.7496 31.2307 29.7079 31.2164C29.6146 31.256 29.6146 31.256 29.4603 31.2416C29.4196 31.2371 29.3804 31.2236 29.3455 31.2021C29.3106 31.1805 29.2809 31.1514 29.2586 31.1169C29.2362 31.0824 29.2218 31.0433 29.2164 31.0025C29.2109 30.9617 29.2146 30.9201 29.2271 30.8809C29.2492 30.698 29.218 30.5126 29.1374 30.3471C29.1319 30.3353 29.1291 30.3223 29.1291 30.3093C29.1291 30.2962 29.1319 30.2833 29.1374 30.2714C29.2019 30.1524 29.1625 30.0622 29.1768 29.972C29.1727 29.8393 29.1811 29.7064 29.2019 29.5753C29.2414 29.4743 29.2665 29.3553 29.1768 29.2795C29.1768 29.1749 29.1517 29.0848 29.2019 28.9802C29.2212 28.9352 29.2311 28.8867 29.2311 28.8377C29.2311 28.7887 29.2212 28.7402 29.2019 28.6952C29.1625 28.4625 29.1625 28.2247 29.2019 27.9919C29.2271 27.927 29.2019 27.8621 29.2019 27.7863V27.1912C29.2028 27.1784 29.2064 27.1659 29.2126 27.1547C29.2188 27.1435 29.2274 27.1338 29.2378 27.1263C29.212 27.1024 29.1944 27.0708 29.1876 27.0361C29.1706 26.8579 29.1791 26.6782 29.2127 26.5023C29.2127 26.5023 29.1876 26.4771 29.1876 26.4518C29.2001 26.3657 29.2001 26.2783 29.1876 26.1922C29.1876 26.0768 29.2881 25.9577 29.1876 25.8676C29.1876 25.763 29.1481 25.6584 29.2127 25.5574C29.2217 25.5518 29.2289 25.5437 29.2334 25.5341C29.2378 25.5245 29.2394 25.5138 29.2378 25.5033C29.1785 25.1957 29.1616 24.8814 29.1876 24.5691C29.1885 24.4336 29.2017 24.2983 29.2271 24.1652C29.2317 24.1148 29.2251 24.0641 29.2077 24.0167C29.1903 23.9693 29.1626 23.9263 29.1266 23.8911C29.1266 23.7612 29.1625 23.6206 29.1768 23.4655V23.0507C29.1768 22.9605 29.2019 22.8559 29.1374 22.791C29.132 22.781 29.1292 22.7699 29.1292 22.7585C29.1292 22.7472 29.132 22.7361 29.1374 22.7261C29.2019 22.6467 29.1374 22.5566 29.1768 22.4916C29.2163 22.4267 29.1266 22.3474 29.1768 22.2716C29.2271 22.1959 29.306 22.0877 29.4208 22.0228H30.5296C30.5265 22.0289 30.5248 22.0357 30.5248 22.0426C30.5248 22.0495 30.5265 22.0563 30.5296 22.0624C30.5296 22.0624 30.5296 22.0372 30.5691 22.0228C30.6669 22.0166 30.7651 22.0263 30.8598 22.0516V22.0516Z" fill="#21201E"/>
<path d="M37.2004 29.9035C37.2203 29.7711 37.2287 29.6371 37.2255 29.5032V28.45C37.239 28.3907 37.239 28.329 37.2255 28.2697C37.1861 28.1651 37.2506 28.1254 37.2255 28.0605C37.2183 28.0006 37.2183 27.94 37.2255 27.8801C37.2255 27.8008 37.2506 27.7251 37.1861 27.671C37.1215 27.6169 37.1861 27.6205 37.1861 27.606C37.2454 27.4446 37.2591 27.2698 37.2255 27.1011C37.2255 26.6971 37.2255 26.3076 37.2255 25.9073C37.2381 25.8429 37.2381 25.7768 37.2255 25.7125C37.2004 25.6476 37.3045 25.6223 37.2255 25.543C37.1466 25.4636 37.265 25.4131 37.265 25.3626C37.265 25.3121 37.2901 25.1787 37.2255 25.0885C37.2004 25.0633 37.2255 24.9984 37.2255 24.9443C37.2255 24.6593 37.2255 24.3744 37.2255 24.1003C37.2255 23.9596 37.2255 23.8298 37.2255 23.6855C37.2273 23.5649 37.2357 23.4445 37.2506 23.3248C37.2435 23.1818 37.2435 23.0386 37.2506 22.8956C37.2506 22.8055 37.2112 22.7153 37.2901 22.6107C37.1968 22.5313 37.2901 22.4267 37.2363 22.3258C37.2901 22.2464 37.3404 22.1815 37.3906 22.1021C37.4153 22.116 37.4372 22.1343 37.4552 22.1562C37.4695 22.1215 37.4916 22.0907 37.5198 22.0661H38.0114C38.076 22.0661 38.1549 22.0913 38.2051 22.0264C38.2446 22.0913 38.3092 22.0661 38.3594 22.0661H38.5532C38.6861 22.0909 38.8203 22.1077 38.9551 22.1166C39.1094 22.0913 39.2386 22.0769 39.3678 22.0661C39.4426 22.0592 39.5179 22.0716 39.5867 22.1021C39.6842 22.1473 39.7919 22.166 39.8989 22.1562C40.0253 22.1483 40.1521 22.1658 40.2716 22.208C40.3912 22.2501 40.5012 22.3159 40.595 22.4015C40.6287 22.4171 40.6635 22.4304 40.6991 22.4412C40.7636 22.4808 40.8534 22.5205 40.9036 22.5566C41.022 22.6612 41.1512 22.7658 41.2624 22.8704C41.2909 22.9045 41.3128 22.9436 41.327 22.9858C41.3997 23.1418 41.4812 23.2935 41.571 23.4402C41.6618 23.6179 41.7109 23.8141 41.7146 24.0137C41.7146 24.0642 41.7504 24.1147 41.7504 24.1688C41.7649 24.228 41.7649 24.2899 41.7504 24.3491C41.7504 24.3888 41.7253 24.4141 41.7253 24.4537C41.7253 24.5583 41.7648 24.6629 41.7899 24.7783C41.815 24.8938 41.7397 24.9731 41.7146 25.0777C41.6894 25.1823 41.6859 25.2075 41.6751 25.258C41.6805 25.3144 41.6805 25.3712 41.6751 25.4276C41.65 25.5177 41.6213 25.6079 41.5961 25.6728C41.571 25.7377 41.4562 25.8568 41.4418 25.9469C41.4235 26.0816 41.3646 26.2075 41.2732 26.3076V26.4771C41.5323 26.7792 41.7342 27.1263 41.8689 27.5014C41.8689 27.5411 41.894 27.5916 41.894 27.6168C41.8703 27.8329 41.8974 28.0516 41.9729 28.2552C41.9499 28.2845 41.9374 28.3207 41.9374 28.358C41.9374 28.3953 41.9499 28.4316 41.9729 28.4608C41.9083 28.5258 41.998 28.6051 41.9729 28.67C41.9478 28.7349 41.9729 28.8107 41.9729 28.8756C41.9641 29.0203 41.9425 29.1639 41.9083 29.3048C41.9083 29.3048 41.9083 29.3048 41.9083 29.3301C41.9258 29.5063 41.8895 29.6836 41.8043 29.8386C41.787 29.9822 41.7372 30.1198 41.6588 30.2411C41.5805 30.3624 41.4756 30.464 41.3521 30.5383C41.2563 30.6091 41.1663 30.6875 41.083 30.7728C40.9239 30.9096 40.7381 31.0116 40.5376 31.0721C40.4975 31.0957 40.4539 31.1128 40.4084 31.1226C40.3696 31.1283 40.3312 31.1368 40.2936 31.1479C40.1963 31.1778 40.0966 31.1996 39.9957 31.2128C39.8865 31.2 39.7758 31.2136 39.6728 31.2524C39.5974 31.2921 39.5185 31.2524 39.4144 31.2524C39.3104 31.2524 39.2099 31.1623 39.0915 31.2524C39.0664 31.2921 39.0018 31.2524 38.9623 31.2524C38.7434 31.2524 38.5496 31.2524 38.3415 31.2524C38.2463 31.2627 38.15 31.2541 38.058 31.2272C37.9737 31.2026 37.884 31.2026 37.7997 31.2272C37.6588 31.2693 37.5077 31.2603 37.3727 31.202C37.3368 31.202 37.3116 31.1082 37.2722 31.0577C37.2539 30.8543 37.2623 30.6493 37.2973 30.4481C37.2076 30.2786 37.2973 30.0875 37.2973 29.8747L37.2004 29.9035ZM40.1572 24.5692C40.1572 24.3744 40.028 24.2085 40.0388 24.0354C39.9506 23.8176 39.7977 23.6324 39.601 23.5052C39.4718 23.5052 39.2781 23.4799 39.1094 23.4511C39.0054 23.5304 38.93 23.6098 38.8762 23.6458C38.8511 23.7504 38.8403 23.8153 38.8259 23.8947C38.8335 23.8982 38.8399 23.9038 38.8443 23.9108C38.8488 23.9178 38.8511 23.926 38.8511 23.9344C38.8511 23.9344 38.8511 23.9596 38.8511 23.9704C38.8724 24.2115 38.8591 24.4545 38.8116 24.6918V24.6918C38.8312 24.7466 38.8578 24.7988 38.8905 24.8469C38.7721 24.8974 38.8905 25.0164 38.8259 25.0921C38.8033 25.1342 38.7915 25.1813 38.7915 25.2292C38.7915 25.277 38.8033 25.3241 38.8259 25.3662C38.8514 25.4591 38.8646 25.5549 38.8654 25.6512C38.93 25.7161 38.9802 25.7702 39.0448 25.8459C39.1632 25.781 39.2386 25.9361 39.357 25.8712C39.4654 25.8269 39.5688 25.7713 39.6656 25.7053C39.7714 25.6524 39.8608 25.5713 39.924 25.4708C39.9886 25.3662 39.9886 25.2508 40.0926 25.1571C40.0994 24.9597 40.121 24.7632 40.1572 24.5692ZM40.3617 28.6195C40.3617 28.5294 40.3366 28.45 40.3905 28.3743C40.4443 28.2985 40.3905 28.2444 40.3905 28.1651C40.3477 28.0622 40.3258 27.9519 40.3259 27.8405C40.3205 27.8178 40.312 27.7959 40.3007 27.7755C40.2343 27.5871 40.1235 27.4176 39.9778 27.2814L39.9132 27.2454C39.8343 27.2165 39.7194 27.2454 39.6548 27.1913C39.567 27.1561 39.4755 27.1307 39.3821 27.1155C39.3068 27.0758 39.2027 27.1155 39.113 27.1155C39.0197 27.2057 38.9443 27.3067 38.8905 27.3608C38.8905 27.4762 38.8654 27.5808 38.8546 27.6457C38.8439 27.7106 38.9192 27.79 38.8546 27.8405C38.8546 27.8657 38.8941 27.891 38.8941 27.9198V28.3454C38.8941 28.4753 38.9336 28.634 38.8546 28.7638C38.9336 28.9441 38.8546 29.1245 38.8941 29.294C38.9695 29.3589 38.8403 29.4238 38.8941 29.4888C38.9183 29.5509 38.9317 29.6168 38.9336 29.6835C38.9749 29.7313 39.0273 29.7681 39.0861 29.7908C39.1449 29.8134 39.2084 29.8212 39.2709 29.8134H39.5293C39.5938 29.8134 39.6692 29.7629 39.7338 29.8134C39.7338 29.7737 39.7733 29.7484 39.7733 29.7232C39.7994 29.7363 39.8294 29.7394 39.8577 29.7321C39.8861 29.7249 39.9108 29.7076 39.9276 29.6835C40.0567 29.4996 40.2146 29.3228 40.3438 29.1641C40.3191 28.9829 40.3252 28.7987 40.3617 28.6195V28.6195Z" fill="#21201E"/>
<path d="M47.1186 22.0516C47.2387 22.0728 47.3622 22.0629 47.4774 22.0228C47.5563 22.0228 47.6317 22.0624 47.6855 22.0516C47.7393 22.0408 47.8003 22.0516 47.8649 22.0228C47.9163 22.0185 47.9657 22.0012 48.0085 21.9723C48.0178 21.9878 48.031 22.0006 48.0467 22.0094C48.0624 22.0183 48.0802 22.0229 48.0982 22.0228C48.1879 22.0228 48.3027 22.0228 48.4211 22.0624C48.4757 22.0801 48.5342 22.0809 48.5892 22.0648C48.6442 22.0488 48.6931 22.0165 48.7297 21.9723C48.7859 22.0002 48.8467 22.0173 48.9091 22.0228H49.494C49.6089 22.0228 49.7237 22.0624 49.8529 22.0769C49.9016 22.1267 49.9531 22.1737 50.0072 22.2175V22.6215C50.0072 22.7008 49.9677 22.7658 50.0072 22.8163C50.0153 22.8473 50.016 22.8799 50.0091 22.9112C50.0023 22.9426 49.9881 22.9718 49.9677 22.9966C50.0861 23.1156 49.9677 23.2058 49.9426 23.2959C49.9175 23.3861 49.8026 23.415 49.6986 23.415C49.6725 23.4099 49.6457 23.4099 49.6196 23.415C49.555 23.415 49.5048 23.4402 49.4653 23.415C49.3094 23.3698 49.144 23.3698 48.9881 23.415C48.8922 23.416 48.7966 23.4026 48.7046 23.3753C48.6818 23.4127 48.6554 23.4478 48.6257 23.4799C48.5611 23.4546 48.5108 23.4546 48.4857 23.415C48.4614 23.3981 48.4335 23.3871 48.4043 23.3827C48.3751 23.3783 48.3452 23.3807 48.3171 23.3897C48.1996 23.4219 48.0757 23.4219 47.9582 23.3897C47.8605 23.3626 47.7582 23.3567 47.658 23.3722C47.5578 23.3877 47.462 23.4244 47.3769 23.4799C47.3257 23.5422 47.2778 23.6072 47.2334 23.6747C47.2334 23.7648 47.2334 23.8694 47.1832 23.9596C47.1329 24.0498 47.1832 24.075 47.1832 24.1147C47.1832 24.1544 47.2477 24.2049 47.2083 24.2698C47.1857 24.3194 47.177 24.3743 47.1832 24.4285C47.1832 24.4934 47.2477 24.5439 47.2477 24.6232C47.2477 24.7026 47.2083 24.7531 47.2729 24.8036C47.3375 24.8541 47.1975 24.9082 47.2729 24.9478C47.2334 24.9731 47.2729 25.0128 47.2729 25.0488C47.263 25.1061 47.2498 25.1627 47.2334 25.2183C47.2255 25.2963 47.2255 25.3748 47.2334 25.4528C47.2705 25.5288 47.2843 25.6142 47.2729 25.698C47.325 25.7697 47.3852 25.835 47.4523 25.8928H48.9235C49.0922 25.9325 49.146 26.0623 49.1962 26.2174V27.1155C49.1489 27.1745 49.0973 27.23 49.0419 27.2814C48.8127 27.2644 48.5823 27.2778 48.3565 27.3211C48.3444 27.3112 48.3311 27.3027 48.3171 27.2958C48.1738 27.3354 48.0226 27.3354 47.8793 27.2958C47.725 27.3211 47.5205 27.3463 47.3482 27.386C47.3231 27.4257 47.2836 27.505 47.2334 27.5808C47.2334 27.7395 47.2334 27.9054 47.2334 28.0605C47.2068 28.2458 47.2068 28.4341 47.2334 28.6195C47.2334 28.6952 47.1832 28.7746 47.2729 28.8648C47.2477 28.9297 47.1688 29.009 47.2729 29.074C47.234 29.1399 47.2114 29.2143 47.2071 29.2909C47.2027 29.3675 47.2166 29.444 47.2477 29.514C47.2511 29.5599 47.2689 29.6035 47.2986 29.6385C47.3283 29.6735 47.3683 29.6981 47.4128 29.7087C47.512 29.7623 47.6232 29.7896 47.7358 29.7881C47.9188 29.7881 48.0946 29.7881 48.2812 29.7881C48.3288 29.7921 48.3758 29.8018 48.4211 29.8169C48.4596 29.7927 48.5052 29.7825 48.5503 29.7881C48.7195 29.7783 48.8893 29.788 49.0563 29.8169C49.2096 29.8421 49.3659 29.8421 49.5192 29.8169H49.8565C49.8959 29.8819 49.9211 29.9215 49.9569 29.9865C49.9303 30.1052 49.9303 30.2284 49.9569 30.3471C49.9825 30.4888 49.9957 30.6324 49.9964 30.7763C50.0004 30.8261 49.9941 30.8761 49.9778 30.9232C49.9616 30.9704 49.9358 31.0136 49.902 31.0502C49.8683 31.0868 49.8274 31.116 49.7819 31.1359C49.7363 31.1558 49.6872 31.166 49.6376 31.1659C49.2382 31.2057 48.8366 31.2189 48.4355 31.2055C48.3234 31.1929 48.2103 31.1929 48.0982 31.2055C47.9977 31.2452 47.9188 31.2055 47.8291 31.2055C47.7096 31.2134 47.5897 31.2134 47.4702 31.2055H46.8494C46.7371 31.1983 46.6245 31.1983 46.5121 31.2055C46.4368 31.2055 46.3578 31.1659 46.2789 31.2452C46.2287 31.1803 46.1497 31.2055 46.0744 31.1911C46.0303 31.1887 45.9869 31.1802 45.9452 31.1659C45.8555 31.2055 45.8555 31.2055 45.6976 31.1911C45.6569 31.1868 45.6177 31.1733 45.5829 31.1517C45.5481 31.1301 45.5185 31.1009 45.4965 31.0663C45.4744 31.0316 45.4604 30.9924 45.4555 30.9516C45.4505 30.9108 45.4548 30.8694 45.4679 30.8304C45.4889 30.6472 45.4565 30.4617 45.3746 30.2966C45.3692 30.2848 45.3663 30.2718 45.3663 30.2588C45.3663 30.2457 45.3692 30.2328 45.3746 30.2209C45.4124 30.126 45.426 30.0231 45.4141 29.9215C45.4225 29.8051 45.4393 29.6893 45.4643 29.5753C45.5038 29.4743 45.5289 29.3553 45.4392 29.2795C45.4392 29.1749 45.4141 29.0848 45.4643 28.9802C45.4836 28.9352 45.4935 28.8867 45.4935 28.8377C45.4935 28.7887 45.4836 28.7402 45.4643 28.6952C45.4284 28.4622 45.4284 28.225 45.4643 27.9919C45.493 27.927 45.4643 27.8621 45.4643 27.7863V27.1912C45.4653 27.178 45.4694 27.1652 45.4762 27.154C45.4831 27.1427 45.4926 27.1332 45.5038 27.1263C45.4757 27.1037 45.4566 27.0717 45.45 27.0361C45.433 26.8579 45.4415 26.6782 45.4751 26.5023C45.4751 26.5023 45.45 26.4771 45.45 26.4518C45.4625 26.3657 45.4625 26.2783 45.45 26.1922C45.45 26.0768 45.554 25.9577 45.45 25.8676C45.45 25.763 45.4105 25.6584 45.4751 25.5574C45.4848 25.5523 45.4927 25.5445 45.4978 25.5348C45.5029 25.5251 45.505 25.5142 45.5038 25.5033C45.4416 25.1961 45.4234 24.8815 45.45 24.5691C45.4548 24.4378 45.4728 24.3073 45.5038 24.1796C45.5065 24.1291 45.4987 24.0787 45.4808 24.0314C45.4628 23.9842 45.4352 23.9413 45.3997 23.9055C45.3997 23.7756 45.4392 23.635 45.45 23.4799V23.0507C45.45 22.9605 45.4751 22.8559 45.4105 22.791C45.4052 22.781 45.4024 22.7699 45.4024 22.7585C45.4024 22.7472 45.4052 22.7361 45.4105 22.7261C45.4751 22.6467 45.4105 22.5566 45.45 22.4916C45.4895 22.4267 45.3997 22.3474 45.45 22.2716C45.5002 22.1959 45.5792 22.0877 45.694 22.0228H46.8064C46.8037 22.029 46.8023 22.0358 46.8023 22.0426C46.8023 22.0494 46.8037 22.0562 46.8064 22.0624C46.8064 22.0624 46.8064 22.0372 46.8459 22.0228C46.9377 22.0182 47.0297 22.028 47.1186 22.0516V22.0516Z" fill="#21201E"/>
</svg>
