<?xml version="1.0" encoding="UTF-8"?>
<svg id="Layer_2" data-name="Layer 2" xmlns="http://www.w3.org/2000/svg" viewBox="0 0 876.05 428.58">
  <defs>
    <style>
      .cls-1 {
        fill: #fff;
      }
    </style>
  </defs>
  <g id="Layer_1-2" data-name="Layer 1">
    <path class="cls-1" d="m423.87,255.51c-.03-.52-.05-1.05-.08-1.58l.04-.04c.01.52.03,1.06.04,1.62Z"/>
    <path class="cls-1" d="m424.58,334.07v-27.38c.13,14.49.16,26.08,0,27.38Z"/>
    <path class="cls-1" d="m457.29,231.07l-.14,6.45c-.19.21-.38.43-.57.64l.71-7.09Z"/>
    <path class="cls-1" d="m75.39,180.46c-13.29,13.83-21.97,20.88-39.32,20.88-20.34,0-36.07-11.93-36.07-34.17,0-17.36,9.49-30.37,48.54-42.85,7.05-2.44,16.54-5.15,26.03-7.59v-7.59c0-25.22-6.24-32.27-23.86-32.27-3.25,0-7.05.27-11.12,1.09l-3.25,14.92c-1.63,13.02-8.14,18.98-17.08,18.98-8.41,0-13.83-4.34-15.19-12.2,3.25-21.7,24.14-35.8,57.22-35.8s45.29,13.83,45.29,49.08v59.12c0,8.68,2.98,12.2,7.86,12.2,3.8,0,6.51-1.9,9.49-5.97l6.24,5.42c-6.51,12.47-14.92,17.08-27.93,17.08-14.37,0-23.59-7.59-26.85-20.34Zm-24.38,1.03c5.96,0,10.56-1.9,23.57-11.11v-42.8c-7.58,2.44-14.63,4.61-19.23,6.5-18.15,7.31-23.57,17.07-23.57,27.36,0,14.09,8.4,20.05,19.23,20.05Z"/>
    <path class="cls-1" d="m127.58,186.05l17.73-3.52c.27-13.27.27-30.61.27-42.26v-13.84c0-15.07,0-21.92-.82-32.88l-19.18-2.47v-10.1l45.24-17.07,4.33,2.71,1.9,21.13c13-14.9,28.71-23.84,45.24-23.84,17.61,0,28.71,7.86,33.86,24.65,14.36-17.34,30.07-24.65,46.59-24.65,24.38,0,36.84,14.63,36.84,47.68v28.67c0,12.19,0,28.99.27,42.53l16.73,3.25v11.11h-66v-11.11l15.75-3.52c.25-13.27.25-30.07.25-42.26v-24.75c0-22.52-5.63-28.69-19.04-28.69-9.65,0-19.31,4.56-29.5,13.68.27,3.49.54,7.51.54,11.8v27.97c0,12.19,0,28.99.28,42.53l16.72,3.25v11.11h-67v-11.11l17.72-3.52c.28-13.27.28-30.07.28-42.26v-24.21c0-21.72-4.83-29.23-18.77-29.23-10.19,0-19.84,5.09-29.23,13.41v40.03c0,11.92,0,28.99.27,42.53l15.73,3.25v11.11h-67v-11.11Z"/>
    <path class="cls-1" d="m413.63,183.54l-3.78-.74c-.1-4.65-.15-9.75-.19-14.91-.08-9.87-.08-19.97-.08-27.62v-35.55l.82-37.99-4.32-2.7-48.5,16.98v10.32l19.18,2.43c.55,10.8.82,19.18.82,34.05v12.46c0,10.72,0,26.26-.21,39.01-.02,1.11-.04,2.19-.06,3.25l-15.64,3.1-2.09.42v11.11h67v-11.11l-12.94-2.51ZM393.84,0c-11.65,0-20.59,7.85-20.59,19.5s8.94,19.24,20.59,19.24,20.32-8.13,20.32-19.24S405.22,0,393.84,0Z"/>
    <path class="cls-1" d="m431.58,186.05l17.73-3.52c.27-13.27.27-30.61.27-42.26v-13.84c0-15.07-.27-21.92-.82-32.88l-19.18-2.47v-10.08l45.12-17.02,4.32,2.7,1.89,20.8c13.78-15.67,29.45-23.5,45.93-23.5,23.5,0,36.74,14.86,36.74,48.36v27.92c0,12.19,0,29.26.27,42.53l16.73,3.25v11.11h-67v-11.11l17.72-3.52c.28-13.27.28-30.07.28-42.26v-25.5c0-21-5.38-28-18.85-28-9.42,0-19.38,4.31-30.15,13.19v40.31c0,11.92,0,28.99.27,42.53l15.73,3.25v11.11h-67v-11.11Z"/>
    <path class="cls-1" d="m423.85,255.51c.28,12.98.57,34.1.73,51.18v-18.63c0-14.17-.24-22.46-.73-32.55Z"/>
    <path class="cls-1" d="m457.31,236.06l-.71,7.1c.19-.21.38-.43.57-.64l-.59,27.53v71.47c0,4.22-.04,8.19-.13,11.94-.71,30.51-4.67,46.29-17.22,58.84-11.66,11.66-23.87,16.28-38.79,16.28-17.9,0-27.12-8.68-29.3-17.09,1.9-9.76,10.04-15.19,19.26-15.19,8.4,0,15.73,4.07,22.51,11.94l4.62,5.16c1.35-1.9,2.7-4.35,3.52-7.33,3.15-9.9,3.49-27.85,3.51-52.61.02-4.58.01-9.39.01-14.43.16-1.3.13-12.91,0-27.41v-18.56c0-14.17-.24-22.46-.73-32.55-.01-.56-.03-1.1-.04-1.62-.09-4.27-.19-7.5-.27-9.16l-18.96-2.44v-10.3l45.27-17.08,8.75,3.23-1.29,12.92Z"/>
    <path class="cls-1" d="m225.58,234.16h49v11.39l-14.89,2.71-40.34,116.9h-15.16l-33.03-91.94-33.57,91.94h-14.89l-43.05-117.44-14.08-2.17v-11.39h67v11.38l-17.89,2.71,24.21,76.39,26.32-76.39-17.63-2.71v-11.38h63v11.38l-17.73,2.98,27,75.31,23.73-75.31-18-2.98v-11.38Z"/>
    <path class="cls-1" d="m274.75,299.16c0-43.34,31.69-69.35,65.83-69.35,31.97,0,53.1,21.67,53.1,54.45,0,6.23-.54,10.84-1.63,14.9h-82.89c1.35,31.15,17.88,46.59,40.63,46.59,15.98,0,26.28-7.04,35.22-17.07l7.86,7.04c-10.56,20.05-28.99,31.42-54.18,31.42-37.93,0-63.93-25.47-63.93-68Zm34.67-12h37.11c13,0,16.25-5.69,16.25-15.44,0-16.53-10.84-28.17-24.11-28.17s-27.09,11.38-29.26,43.61Z"/>
    <path class="cls-1" d="m473.52,298.16c0-43.34,31.69-69.35,65.83-69.35,31.97,0,53.1,21.67,53.1,54.45,0,6.23-.54,10.84-1.63,14.9h-82.89c1.35,31.15,17.88,46.59,40.63,46.59,15.98,0,26.28-7.04,35.22-17.07l7.86,7.04c-10.56,20.05-28.99,31.42-54.18,31.42-37.93,0-63.93-25.47-63.93-68Zm34.67-12h37.11c13,0,16.25-5.69,16.25-15.44,0-16.53-10.84-28.17-24.11-28.17s-27.09,11.38-29.26,43.61Z"/>
    <path class="cls-1" d="m601.58,351.39l17.46-3.23c.27-13.16.54-30.36.54-42.18v-116.66l-20-2.47v-10.63l48.99-12.32,4.11,2.46-1.09,38.59v43.25c12.23-13.04,25.54-19.29,40.49-19.29,29.35,0,52.45,24.19,52.45,67.66s-25.54,70.11-56.79,70.11c-14.13,0-26.09-4.89-36.68-17.66l-3.53,17.12-45.92-3.26v-11.5Zm50-90.56v75.04c8.4,7.86,16.52,11.65,25.46,11.65,17.61,0,31.69-15.98,31.69-49.3s-12.46-49.84-30.61-49.84c-8.4,0-17.34,4.61-26.55,12.46Z"/>
    <path class="cls-1" d="m757.13,298.16c0-43.34,31.69-69.35,65.83-69.35,31.97,0,53.1,21.67,53.1,54.45,0,6.23-.54,10.84-1.63,14.9h-82.89c1.35,31.15,17.88,46.59,40.63,46.59,15.98,0,26.28-7.04,35.22-17.07l7.86,7.04c-10.56,20.05-28.99,31.42-54.18,31.42-37.93,0-63.93-25.47-63.93-68Zm34.67-12h37.11c13,0,16.25-5.69,16.25-15.44,0-16.53-10.84-28.17-24.11-28.17s-27.09,11.38-29.26,43.61Z"/>
  </g>
</svg>